<svg width="750" height="750" viewBox="0 0 750 750" fill="none" xmlns="http://www.w3.org/2000/svg">
<path fill-rule="evenodd" clip-rule="evenodd" d="M155.641 612.585L400 289L423.94 307.079L179.581 630.664L155.641 612.585Z" fill="#3CBAB1"/>
<path fill-rule="evenodd" clip-rule="evenodd" d="M398.046 274.993L437.947 305.125L181.535 644.671L141.634 614.539L398.046 274.993ZM155.641 612.585L400 289L423.941 307.079L179.581 630.664L155.641 612.585Z" fill="#3CBAB1"/>
<path fill-rule="evenodd" clip-rule="evenodd" d="M375 750C582.107 750 750 582.107 750 375C750 167.893 582.107 0 375 0C167.893 0 0 167.893 0 375C0 499.814 60.9778 610.386 154.768 678.55L185.453 639.032C103.421 580.037 50 483.757 50 375C50 195.507 195.507 50 375 50C554.493 50 700 195.507 700 375C700 554.493 554.493 700 375 700C322.28 700 272.493 687.447 228.463 665.168L197.297 705.305C250.185 733.818 310.703 750 375 750Z" fill="#3CBAB1"/>
<path fill-rule="evenodd" clip-rule="evenodd" d="M336.589 273.848C314.125 252.266 283.611 239 250 239C180.964 239 125 294.964 125 364C125 409.844 149.679 449.924 186.477 471.679L204.775 447.565C175.129 431.487 155 400.094 155 364C155 311.533 197.533 269 250 269C276.807 269 301.02 280.103 318.292 297.961L336.589 273.848ZM345 364C345 408.045 315.026 445.089 274.364 455.847L249.33 488.998C249.553 488.999 249.776 489 250 489C264.662 489 278.734 486.476 291.806 481.838L374.748 372.005C374.915 369.358 375 366.689 375 364C375 351.893 373.279 340.187 370.067 329.115L344.986 362.329C344.995 362.885 345 363.442 345 364Z" fill="#3CBAB1"/>
<path fill-rule="evenodd" clip-rule="evenodd" d="M425.408 404.795C439.848 431.138 467.844 449 500 449C546.944 449 585 410.944 585 364C585 317.056 546.944 279 500 279C472.007 279 447.175 292.521 431.671 313.432L425.662 321.536L425.435 321.364L366.786 399.029L365.225 371.855C365.076 369.254 365 366.636 365 364C365 289.442 425.442 229 500 229C574.558 229 635 289.442 635 364C635 438.558 574.558 499 500 499C456.686 499 418.151 478.604 393.453 446.908L399.724 438.643C422.512 469.207 458.945 489 500 489C569.036 489 625 433.036 625 364C625 294.964 569.036 239 500 239C434.163 239 380.214 289.898 375.356 354.492C375.12 357.63 375 360.801 375 364C375 366.444 375.07 368.872 375.209 371.281L423.481 307.357L423.638 307.476C423.972 307.026 424.309 306.579 424.651 306.135C442.019 283.553 469.31 269 500 269C552.467 269 595 311.533 595 364C595 416.467 552.467 459 500 459C465.639 459 435.539 440.758 418.856 413.429L425.408 404.795Z" fill="#3CBAB1"/>
<path fill-rule="evenodd" clip-rule="evenodd" d="M500 459C552.467 459 595 416.467 595 364C595 311.533 552.467 269 500 269C468.706 269 440.947 284.131 423.638 307.476L423.481 307.357L375.209 371.281C375.07 368.872 375 366.444 375 364C375 294.964 430.964 239 500 239C569.036 239 625 294.964 625 364C625 433.036 569.036 489 500 489C459.026 489 422.656 469.285 399.859 438.824L418.977 413.628C435.684 440.846 465.722 459 500 459Z" fill="#3CBAB1"/>
<path fill-rule="evenodd" clip-rule="evenodd" d="M342.671 265.832C318.499 243.007 285.887 229 250 229C175.442 229 115 289.442 115 364C115 413.104 141.211 456.07 180.396 479.694L186.477 471.679C149.679 449.924 125 409.844 125 364C125 294.964 180.964 239 250 239C283.611 239 314.125 252.266 336.589 273.848L342.671 265.832ZM210.898 439.495C183.63 425.341 165 396.841 165 364C165 317.056 203.056 279 250 279C274.532 279 296.647 289.392 312.169 306.031L318.292 297.961C301.02 280.103 276.807 269 250 269C197.533 269 155 311.533 155 364C155 400.094 175.129 431.487 204.775 447.565L210.898 439.495ZM271.807 446.179L268.466 447.063L229.326 498.893L249.277 498.998C249.386 498.999 249.495 498.999 249.604 498.999C249.736 499 249.868 499 250 499C265.817 499 281.019 496.276 295.15 491.262L297.978 490.259L384.538 375.634L384.728 372.636C384.908 369.779 385 366.9 385 364C385 350.94 383.143 338.297 379.671 326.329L374.113 307.164L334.928 359.054L334.987 362.501C334.996 363 335 363.499 335 364C335 403.394 308.191 436.553 271.807 446.179ZM318.757 429.556C306.843 442.048 291.559 451.297 274.364 455.847L249.33 488.998C249.553 488.999 249.776 489 250 489C254.154 489 258.261 488.797 262.311 488.401C272.556 487.4 282.438 485.162 291.806 481.838L374.748 372.005C374.915 369.358 375 366.689 375 364C375 356.418 374.325 348.993 373.032 341.784C372.26 337.48 371.268 333.253 370.067 329.115L344.986 362.329C344.995 362.885 345 363.442 345 364C345 381.547 340.243 397.982 331.948 412.087C328.226 418.416 323.793 424.276 318.757 429.556Z" fill="#3CBAB1"/>
</svg>
