<svg width="409" height="355" viewBox="0 0 409 355" fill="none" xmlns="http://www.w3.org/2000/svg">
<path d="M257.128 27.2606C252.607 31.6913 255.772 39.4676 262.101 39.4676C265.808 39.4676 269.335 35.9411 269.335 32.2338C269.335 28.5265 265.808 25.0001 262.101 25.0001C260.383 25.0001 258.484 25.8139 257.128 27.2606Z" fill="#3CBAB1"/>
<path d="M278.829 27.2606C274.308 31.6913 277.473 39.4676 283.802 39.4676C287.51 39.4676 291.036 35.9411 291.036 32.2338C291.036 28.5265 287.51 25.0001 283.802 25.0001C282.084 25.0001 280.185 25.8139 278.829 27.2606Z" fill="#3CBAB1"/>
<path d="M300.53 27.2606C296.009 31.6913 299.174 39.4676 305.504 39.4676C309.211 39.4676 312.737 35.9411 312.737 32.2338C312.737 28.5265 309.211 25.0001 305.504 25.0001C303.786 25.0001 301.887 25.8139 300.53 27.2606Z" fill="#3CBAB1"/>
<mask id="path-2-outside-1_12_225" maskUnits="userSpaceOnUse" x="0.0695801" y="0.845825" width="409" height="355" fill="black">
<rect fill="white" x="0.0695801" y="0.845825" width="409" height="355"/>
<path d="M11.2575 3.00004C4.5 4 3.39777 4.50004 3.39777 14.5001C2.49998 20.5001 1.13635 255.842 3 262C4.53954 267.267 5.73316 267.152 11 269.583H19.6034H122.996C202.241 269.583 226.55 269.34 227.279 268.611C228.657 267.233 228.495 263.425 226.955 261.967C225.821 260.832 215.368 260.67 124.211 260.67H22.7635H17C12.4624 258.401 12.1483 257.429 11.5 252C11.2569 249.65 11.0955 205.895 11.2575 160.195L11.6724 63.7235H57.6155H67.1719C74.1719 63.7235 82.6719 63.7235 85.1719 63.7235C86.6719 63.7235 87.3575 63.5614 102.672 63.7235H129.672H133.944C136.172 63.7235 135.672 63.7235 138.672 63.7235H142.172H331.319V129.161L331.563 181.587L333.669 182.802C335.614 183.855 336.019 183.855 337.964 182.64L340.071 181.181L339.665 17.5001V11.5001C339.665 4.52175 331.5 3.00004 328 3.00003L322.649 3.00006L171.532 3.08109C88.3965 3.08109 12.5 2.61082 11.2575 3.00004ZM326 13C328.611 13.6267 330.352 13.5435 331 18C331.243 19.9447 331.157 35.9786 330.995 47.1605L330.924 54.0001H147.172H141.672C129.172 54.0001 137.986 54.0001 102.172 54.0001C66.4384 54.0001 69.6719 54.0001 58.6719 54.0001H52.6719H32.1719H11.6724L11.2575 48.3759C11.0955 37.9233 11.4294 22.8499 11.6724 20.5001C12.3207 15.0712 12.9624 14.263 17.5 11.9132H22H170.721C268.198 11.9132 323.974 12.5139 326 13Z"/>
<path d="M281.244 103.394C267.388 106.959 258.88 121.382 262.688 134.914C263.499 137.75 263.985 140.1 263.823 140.343C263.661 140.505 257.098 145.529 249.319 151.525L235.139 162.383L232.465 160.114C222.823 151.606 208.562 151.687 198.919 160.114L195.354 163.274L178.662 153.065L162.051 142.936L162.456 137.507C164.158 113.685 135.393 101.287 118.701 118.628C114.082 123.408 111.976 128.675 111.976 135.887C111.976 140.505 112.462 142.936 113.839 146.015L115.703 149.985L95.3649 170.324L75.0268 190.743L72.4339 188.312C67.9773 184.098 61.8192 181.83 55.0938 181.83C49.908 181.83 48.4495 182.154 43.7499 184.585C21.9533 195.685 26.896 228.421 50.9614 232.148C62.6295 233.931 72.5959 228.745 78.1869 218.13C80.1316 214.565 80.3747 213.107 80.3747 206.543V199.089L122.509 156.954L126.804 159.142C135.474 163.436 147.304 161.41 154.84 154.28L158 151.282L174.287 161.248L190.492 171.215L190.573 178.426C190.573 184.747 190.897 186.367 192.842 190.338C195.435 195.604 200.135 200.142 205.482 202.573C211.316 205.328 220.716 205.085 226.793 202.087C236.03 197.549 241.702 187.988 241.054 178.021C240.811 175.104 240.487 172.268 240.325 171.62C240.163 170.891 245.51 166.191 254.91 158.98L269.819 147.474L274.276 150.148C284.161 156.144 296.882 154.604 305.147 146.339C309.928 141.478 312.035 136.616 312.359 129.323C312.683 123.894 312.359 122.436 310.495 118.141C307.902 112.469 302.879 107.365 297.288 104.934C293.236 103.151 285.214 102.341 281.244 103.394ZM294.614 114.009C304.985 119.276 306.525 132.726 297.693 140.505C285.782 150.958 268.522 140.181 271.521 124.137C272.169 120.734 276.949 115.062 280.515 113.523C284.161 111.902 291.048 112.145 294.614 114.009ZM146.17 122.355C155.65 128.918 155.65 142.855 146.251 149.337C142.604 151.93 136.608 152.74 132.233 151.282C128.425 149.985 123.806 145.934 122.428 142.612C121.051 139.452 120.97 132.807 122.185 129.647C125.507 120.734 138.31 116.845 146.17 122.355ZM219.987 163.598C222.498 164.246 224.767 165.624 227.117 167.893C237.327 178.183 230.277 195.28 215.692 195.28C211.398 195.28 206.212 193.174 203.862 190.5C195.921 181.424 199.891 166.758 211.235 163.598C215.044 162.464 215.611 162.464 219.987 163.598ZM61.5761 192.282C64.8983 193.984 68.4635 197.306 69.841 199.899C75.1078 210.271 66.843 223.478 55.0938 223.397C45.7756 223.316 37.4297 213.674 39.0502 204.842C40.1036 199.332 43.993 194.227 48.7736 192.12C52.0958 190.662 58.497 190.743 61.5761 192.282Z"/>
<path d="M303.203 184.098C298.746 185.152 294.29 186.286 293.317 186.529C290.238 187.259 285.863 191.715 284.971 195.037C284.161 197.873 284.647 201.925 286.187 207.273C286.511 208.083 285.133 209.541 282.216 211.567L277.841 214.565L273.141 211.648C267.469 208.245 262.607 207.84 258.394 210.433C256.044 211.891 247.698 223.64 244.133 230.609C240.973 236.605 243.323 243.249 250.048 247.544C252.56 249.083 254.667 250.461 254.829 250.542C254.991 250.704 254.667 253.135 254.18 256.052L253.208 261.399L249.886 261.886C241.378 263.263 236.354 267.882 236.354 274.364C236.354 278.902 240.244 296.161 241.945 298.997C242.674 300.293 244.457 302.076 245.916 302.967C248.265 304.425 249.481 304.588 254.018 304.182C257.016 303.858 260.177 303.453 261.149 303.21C262.445 302.805 263.337 303.534 265.686 307.099L268.604 311.394L265.768 316.013C262.445 321.522 261.959 326.222 264.39 330.436C266.173 333.515 281.892 344.372 286.754 345.831C292.831 347.695 298.26 345.021 302.392 337.971L304.58 334.244L308.713 334.811C314.547 335.621 315.438 336.27 316.086 340.24C316.896 345.426 318.922 348.91 322.406 351.179C325.161 353.042 326.053 353.205 330.59 352.799C337.883 352.07 351.252 348.586 353.764 346.803C358.383 343.4 359.436 338.376 357.492 329.058C357.005 326.789 357.249 326.303 361.138 323.548L365.27 320.55L369.97 323.467C375.642 326.87 380.828 327.275 385.041 324.683C387.715 323.062 398.087 307.586 400.031 302.481C401.895 297.457 399.221 291.704 393.063 287.653L388.525 284.655L389.093 279.793C389.417 277.038 389.822 274.607 389.984 274.364C390.146 274.04 392.577 273.392 395.332 272.824C401.49 271.69 406.028 267.72 406.919 262.858C407.648 259.293 403.273 238.955 401.247 235.794C398.168 231.176 392.577 229.717 384.636 231.581C381.152 232.391 380.99 232.31 378.802 229.717C374.589 224.532 374.508 224.126 377.344 219.427C380.747 213.917 381.314 209.379 379.126 205.004C377.749 202.411 375.642 200.628 368.268 196.01C355.223 187.826 353.602 187.34 347.768 190.176C345.418 191.31 343.636 193.093 341.691 196.253L338.855 200.79L334.48 200.304C328.24 199.494 328.078 199.413 327.106 194.632C325.972 189.203 323.46 185.314 319.813 183.531C316.167 181.668 313.088 181.749 303.203 184.098ZM315.924 191.958C316.572 192.525 317.626 194.794 318.112 197.063C320.462 206.786 320.543 207.029 323.217 207.921C324.594 208.407 326.782 208.812 328.159 208.812C329.456 208.812 333.021 209.379 336.1 210.19C342.663 211.729 342.663 211.81 347.768 203.788C350.28 199.899 351.901 198.278 353.035 198.278C354.737 198.278 370.213 207.84 371.266 209.622C371.591 210.108 370.213 213.188 368.106 216.672C366.081 219.994 364.379 223.559 364.379 224.532C364.379 225.423 365.675 227.854 367.296 229.879C368.917 231.905 371.429 235.47 372.968 237.739C376.128 242.682 376.938 242.844 385.771 240.818C391.361 239.522 393.225 239.765 393.873 241.872C395.008 245.437 397.601 258.482 397.601 260.265C397.601 262.696 396.304 263.425 389.255 264.803C382.772 266.018 380.585 268.044 380.585 272.743C380.585 274.364 380.017 278.01 379.288 280.927C378.64 283.844 378.235 287.004 378.478 287.896C378.802 288.949 381.395 291.137 385.041 293.487C389.093 295.999 391.118 297.781 391.118 298.753C391.118 300.941 381.314 316.418 379.531 316.985C378.64 317.309 375.966 316.175 372.158 313.825C368.836 311.799 365.594 310.097 364.865 310.097C364.136 310.097 361.138 311.961 358.221 314.149C355.304 316.418 351.82 318.767 350.523 319.416C346.715 321.441 346.391 322.981 348.092 330.517C349.065 334.487 349.389 337.647 348.984 338.457C348.416 339.592 344.689 340.564 329.942 343.805C327.187 344.372 326.215 342.995 324.675 336.108C323.865 332.461 322.811 328.977 322.325 328.41C321.758 327.762 319.084 327.032 316.329 326.708C313.574 326.384 309.361 325.574 306.93 325.007C304.499 324.358 301.906 324.034 301.096 324.277C300.367 324.52 298.017 327.438 295.91 330.76C293.074 335.378 291.697 336.837 290.319 336.837C287.888 336.837 272.493 326.951 272.169 325.169C272.007 324.439 273.546 321.117 275.572 317.876C277.598 314.554 279.299 311.313 279.299 310.665C279.299 310.016 278.003 307.91 276.463 306.046C274.924 304.182 272.412 300.698 270.953 298.267C269.414 295.512 267.631 293.649 266.497 293.325C265.443 293.081 261.635 293.487 258.07 294.297C252.56 295.512 251.426 295.512 250.453 294.54C249.805 293.973 248.346 289.192 247.212 283.925C245.591 276.552 245.267 274.202 246.078 273.311C246.564 272.662 249.805 271.528 253.208 270.718C256.611 269.907 260.015 268.773 260.744 268.206C261.554 267.558 262.283 265.208 262.607 262.048C262.851 259.293 263.58 255.16 264.228 252.973C264.795 250.623 265.038 248.111 264.633 247.138C264.309 246.166 261.392 243.735 258.232 241.71C255.072 239.684 252.317 237.496 252.074 236.929C251.588 235.632 262.04 218.616 263.661 217.968C264.309 217.725 267.469 219.184 270.872 221.29C274.194 223.316 277.598 225.018 278.489 225.018C279.38 225.018 282.135 223.397 284.647 221.371C287.078 219.346 290.481 216.996 292.264 216.105C293.965 215.213 295.667 213.755 295.91 212.782C296.234 211.81 295.829 208.002 295.019 204.193C293.965 198.927 293.803 197.225 294.614 196.415C295.343 195.685 306.849 192.525 314.222 191.067C314.466 191.067 315.195 191.472 315.924 191.958Z"/>
<path d="M308.469 226.071C293.155 231.338 282.054 243.492 278.894 258.644C277.436 265.775 277.436 269.34 278.894 276.228C284.161 301.427 309.928 316.904 333.993 309.449C348.578 304.993 361.462 291.218 364.46 277.038C365.757 270.718 364.946 259.05 362.839 252.973C358.14 239.846 346.391 228.907 333.183 225.504C325.972 223.559 314.952 223.883 308.469 226.071ZM329.78 233.526C344.041 237.253 354.169 248.273 356.357 262.615C360.247 287.328 335.614 308.72 311.792 301.265C295.424 296.161 285.701 282.062 286.835 264.965C287.321 256.133 290.481 249.407 296.882 242.925C305.958 233.85 317.95 230.447 329.78 233.526Z"/>
</mask>
<path d="M11.2575 3.00004C4.5 4 3.39777 4.50004 3.39777 14.5001C2.49998 20.5001 1.13635 255.842 3 262C4.53954 267.267 5.73316 267.152 11 269.583H19.6034H122.996C202.241 269.583 226.55 269.34 227.279 268.611C228.657 267.233 228.495 263.425 226.955 261.967C225.821 260.832 215.368 260.67 124.211 260.67H22.7635H17C12.4624 258.401 12.1483 257.429 11.5 252C11.2569 249.65 11.0955 205.895 11.2575 160.195L11.6724 63.7235H57.6155H67.1719C74.1719 63.7235 82.6719 63.7235 85.1719 63.7235C86.6719 63.7235 87.3575 63.5614 102.672 63.7235H129.672H133.944C136.172 63.7235 135.672 63.7235 138.672 63.7235H142.172H331.319V129.161L331.563 181.587L333.669 182.802C335.614 183.855 336.019 183.855 337.964 182.64L340.071 181.181L339.665 17.5001V11.5001C339.665 4.52175 331.5 3.00004 328 3.00003L322.649 3.00006L171.532 3.08109C88.3965 3.08109 12.5 2.61082 11.2575 3.00004ZM326 13C328.611 13.6267 330.352 13.5435 331 18C331.243 19.9447 331.157 35.9786 330.995 47.1605L330.924 54.0001H147.172H141.672C129.172 54.0001 137.986 54.0001 102.172 54.0001C66.4384 54.0001 69.6719 54.0001 58.6719 54.0001H52.6719H32.1719H11.6724L11.2575 48.3759C11.0955 37.9233 11.4294 22.8499 11.6724 20.5001C12.3207 15.0712 12.9624 14.263 17.5 11.9132H22H170.721C268.198 11.9132 323.974 12.5139 326 13Z" fill="#3CBAB1"/>
<path d="M281.244 103.394C267.388 106.959 258.88 121.382 262.688 134.914C263.499 137.75 263.985 140.1 263.823 140.343C263.661 140.505 257.098 145.529 249.319 151.525L235.139 162.383L232.465 160.114C222.823 151.606 208.562 151.687 198.919 160.114L195.354 163.274L178.662 153.065L162.051 142.936L162.456 137.507C164.158 113.685 135.393 101.287 118.701 118.628C114.082 123.408 111.976 128.675 111.976 135.887C111.976 140.505 112.462 142.936 113.839 146.015L115.703 149.985L95.3649 170.324L75.0268 190.743L72.4339 188.312C67.9773 184.098 61.8192 181.83 55.0938 181.83C49.908 181.83 48.4495 182.154 43.7499 184.585C21.9533 195.685 26.896 228.421 50.9614 232.148C62.6295 233.931 72.5959 228.745 78.1869 218.13C80.1316 214.565 80.3747 213.107 80.3747 206.543V199.089L122.509 156.954L126.804 159.142C135.474 163.436 147.304 161.41 154.84 154.28L158 151.282L174.287 161.248L190.492 171.215L190.573 178.426C190.573 184.747 190.897 186.367 192.842 190.338C195.435 195.604 200.135 200.142 205.482 202.573C211.316 205.328 220.716 205.085 226.793 202.087C236.03 197.549 241.702 187.988 241.054 178.021C240.811 175.104 240.487 172.268 240.325 171.62C240.163 170.891 245.51 166.191 254.91 158.98L269.819 147.474L274.276 150.148C284.161 156.144 296.882 154.604 305.147 146.339C309.928 141.478 312.035 136.616 312.359 129.323C312.683 123.894 312.359 122.436 310.495 118.141C307.902 112.469 302.879 107.365 297.288 104.934C293.236 103.151 285.214 102.341 281.244 103.394ZM294.614 114.009C304.985 119.276 306.525 132.726 297.693 140.505C285.782 150.958 268.522 140.181 271.521 124.137C272.169 120.734 276.949 115.062 280.515 113.523C284.161 111.902 291.048 112.145 294.614 114.009ZM146.17 122.355C155.65 128.918 155.65 142.855 146.251 149.337C142.604 151.93 136.608 152.74 132.233 151.282C128.425 149.985 123.806 145.934 122.428 142.612C121.051 139.452 120.97 132.807 122.185 129.647C125.507 120.734 138.31 116.845 146.17 122.355ZM219.987 163.598C222.498 164.246 224.767 165.624 227.117 167.893C237.327 178.183 230.277 195.28 215.692 195.28C211.398 195.28 206.212 193.174 203.862 190.5C195.921 181.424 199.891 166.758 211.235 163.598C215.044 162.464 215.611 162.464 219.987 163.598ZM61.5761 192.282C64.8983 193.984 68.4635 197.306 69.841 199.899C75.1078 210.271 66.843 223.478 55.0938 223.397C45.7756 223.316 37.4297 213.674 39.0502 204.842C40.1036 199.332 43.993 194.227 48.7736 192.12C52.0958 190.662 58.497 190.743 61.5761 192.282Z" fill="#3CBAB1"/>
<path d="M303.203 184.098C298.746 185.152 294.29 186.286 293.317 186.529C290.238 187.259 285.863 191.715 284.971 195.037C284.161 197.873 284.647 201.925 286.187 207.273C286.511 208.083 285.133 209.541 282.216 211.567L277.841 214.565L273.141 211.648C267.469 208.245 262.607 207.84 258.394 210.433C256.044 211.891 247.698 223.64 244.133 230.609C240.973 236.605 243.323 243.249 250.048 247.544C252.56 249.083 254.667 250.461 254.829 250.542C254.991 250.704 254.667 253.135 254.18 256.052L253.208 261.399L249.886 261.886C241.378 263.263 236.354 267.882 236.354 274.364C236.354 278.902 240.244 296.161 241.945 298.997C242.674 300.293 244.457 302.076 245.916 302.967C248.265 304.425 249.481 304.588 254.018 304.182C257.016 303.858 260.177 303.453 261.149 303.21C262.445 302.805 263.337 303.534 265.686 307.099L268.604 311.394L265.768 316.013C262.445 321.522 261.959 326.222 264.39 330.436C266.173 333.515 281.892 344.372 286.754 345.831C292.831 347.695 298.26 345.021 302.392 337.971L304.58 334.244L308.713 334.811C314.547 335.621 315.438 336.27 316.086 340.24C316.896 345.426 318.922 348.91 322.406 351.179C325.161 353.042 326.053 353.205 330.59 352.799C337.883 352.07 351.252 348.586 353.764 346.803C358.383 343.4 359.436 338.376 357.492 329.058C357.005 326.789 357.249 326.303 361.138 323.548L365.27 320.55L369.97 323.467C375.642 326.87 380.828 327.275 385.041 324.683C387.715 323.062 398.087 307.586 400.031 302.481C401.895 297.457 399.221 291.704 393.063 287.653L388.525 284.655L389.093 279.793C389.417 277.038 389.822 274.607 389.984 274.364C390.146 274.04 392.577 273.392 395.332 272.824C401.49 271.69 406.028 267.72 406.919 262.858C407.648 259.293 403.273 238.955 401.247 235.794C398.168 231.176 392.577 229.717 384.636 231.581C381.152 232.391 380.99 232.31 378.802 229.717C374.589 224.532 374.508 224.126 377.344 219.427C380.747 213.917 381.314 209.379 379.126 205.004C377.749 202.411 375.642 200.628 368.268 196.01C355.223 187.826 353.602 187.34 347.768 190.176C345.418 191.31 343.636 193.093 341.691 196.253L338.855 200.79L334.48 200.304C328.24 199.494 328.078 199.413 327.106 194.632C325.972 189.203 323.46 185.314 319.813 183.531C316.167 181.668 313.088 181.749 303.203 184.098ZM315.924 191.958C316.572 192.525 317.626 194.794 318.112 197.063C320.462 206.786 320.543 207.029 323.217 207.921C324.594 208.407 326.782 208.812 328.159 208.812C329.456 208.812 333.021 209.379 336.1 210.19C342.663 211.729 342.663 211.81 347.768 203.788C350.28 199.899 351.901 198.278 353.035 198.278C354.737 198.278 370.213 207.84 371.266 209.622C371.591 210.108 370.213 213.188 368.106 216.672C366.081 219.994 364.379 223.559 364.379 224.532C364.379 225.423 365.675 227.854 367.296 229.879C368.917 231.905 371.429 235.47 372.968 237.739C376.128 242.682 376.938 242.844 385.771 240.818C391.361 239.522 393.225 239.765 393.873 241.872C395.008 245.437 397.601 258.482 397.601 260.265C397.601 262.696 396.304 263.425 389.255 264.803C382.772 266.018 380.585 268.044 380.585 272.743C380.585 274.364 380.017 278.01 379.288 280.927C378.64 283.844 378.235 287.004 378.478 287.896C378.802 288.949 381.395 291.137 385.041 293.487C389.093 295.999 391.118 297.781 391.118 298.753C391.118 300.941 381.314 316.418 379.531 316.985C378.64 317.309 375.966 316.175 372.158 313.825C368.836 311.799 365.594 310.097 364.865 310.097C364.136 310.097 361.138 311.961 358.221 314.149C355.304 316.418 351.82 318.767 350.523 319.416C346.715 321.441 346.391 322.981 348.092 330.517C349.065 334.487 349.389 337.647 348.984 338.457C348.416 339.592 344.689 340.564 329.942 343.805C327.187 344.372 326.215 342.995 324.675 336.108C323.865 332.461 322.811 328.977 322.325 328.41C321.758 327.762 319.084 327.032 316.329 326.708C313.574 326.384 309.361 325.574 306.93 325.007C304.499 324.358 301.906 324.034 301.096 324.277C300.367 324.52 298.017 327.438 295.91 330.76C293.074 335.378 291.697 336.837 290.319 336.837C287.888 336.837 272.493 326.951 272.169 325.169C272.007 324.439 273.546 321.117 275.572 317.876C277.598 314.554 279.299 311.313 279.299 310.665C279.299 310.016 278.003 307.91 276.463 306.046C274.924 304.182 272.412 300.698 270.953 298.267C269.414 295.512 267.631 293.649 266.497 293.325C265.443 293.081 261.635 293.487 258.07 294.297C252.56 295.512 251.426 295.512 250.453 294.54C249.805 293.973 248.346 289.192 247.212 283.925C245.591 276.552 245.267 274.202 246.078 273.311C246.564 272.662 249.805 271.528 253.208 270.718C256.611 269.907 260.015 268.773 260.744 268.206C261.554 267.558 262.283 265.208 262.607 262.048C262.851 259.293 263.58 255.16 264.228 252.973C264.795 250.623 265.038 248.111 264.633 247.138C264.309 246.166 261.392 243.735 258.232 241.71C255.072 239.684 252.317 237.496 252.074 236.929C251.588 235.632 262.04 218.616 263.661 217.968C264.309 217.725 267.469 219.184 270.872 221.29C274.194 223.316 277.598 225.018 278.489 225.018C279.38 225.018 282.135 223.397 284.647 221.371C287.078 219.346 290.481 216.996 292.264 216.105C293.965 215.213 295.667 213.755 295.91 212.782C296.234 211.81 295.829 208.002 295.019 204.193C293.965 198.927 293.803 197.225 294.614 196.415C295.343 195.685 306.849 192.525 314.222 191.067C314.466 191.067 315.195 191.472 315.924 191.958Z" fill="#3CBAB1"/>
<path d="M308.469 226.071C293.155 231.338 282.054 243.492 278.894 258.644C277.436 265.775 277.436 269.34 278.894 276.228C284.161 301.427 309.928 316.904 333.993 309.449C348.578 304.993 361.462 291.218 364.46 277.038C365.757 270.718 364.946 259.05 362.839 252.973C358.14 239.846 346.391 228.907 333.183 225.504C325.972 223.559 314.952 223.883 308.469 226.071ZM329.78 233.526C344.041 237.253 354.169 248.273 356.357 262.615C360.247 287.328 335.614 308.72 311.792 301.265C295.424 296.161 285.701 282.062 286.835 264.965C287.321 256.133 290.481 249.407 296.882 242.925C305.958 233.85 317.95 230.447 329.78 233.526Z" fill="#3CBAB1"/>
<path d="M11.2575 3.00004C4.5 4 3.39777 4.50004 3.39777 14.5001C2.49998 20.5001 1.13635 255.842 3 262C4.53954 267.267 5.73316 267.152 11 269.583H19.6034H122.996C202.241 269.583 226.55 269.34 227.279 268.611C228.657 267.233 228.495 263.425 226.955 261.967C225.821 260.832 215.368 260.67 124.211 260.67H22.7635H17C12.4624 258.401 12.1483 257.429 11.5 252C11.2569 249.65 11.0955 205.895 11.2575 160.195L11.6724 63.7235H57.6155H67.1719C74.1719 63.7235 82.6719 63.7235 85.1719 63.7235C86.6719 63.7235 87.3575 63.5614 102.672 63.7235H129.672H133.944C136.172 63.7235 135.672 63.7235 138.672 63.7235H142.172H331.319V129.161L331.563 181.587L333.669 182.802C335.614 183.855 336.019 183.855 337.964 182.64L340.071 181.181L339.665 17.5001V11.5001C339.665 4.52175 331.5 3.00004 328 3.00003L322.649 3.00006L171.532 3.08109C88.3965 3.08109 12.5 2.61082 11.2575 3.00004ZM326 13C328.611 13.6267 330.352 13.5435 331 18C331.243 19.9447 331.157 35.9786 330.995 47.1605L330.924 54.0001H147.172H141.672C129.172 54.0001 137.986 54.0001 102.172 54.0001C66.4384 54.0001 69.6719 54.0001 58.6719 54.0001H52.6719H32.1719H11.6724L11.2575 48.3759C11.0955 37.9233 11.4294 22.8499 11.6724 20.5001C12.3207 15.0712 12.9624 14.263 17.5 11.9132H22H170.721C268.198 11.9132 323.974 12.5139 326 13Z" stroke="#3CBAB1" stroke-width="4" mask="url(#path-2-outside-1_12_225)"/>
<path d="M281.244 103.394C267.388 106.959 258.88 121.382 262.688 134.914C263.499 137.75 263.985 140.1 263.823 140.343C263.661 140.505 257.098 145.529 249.319 151.525L235.139 162.383L232.465 160.114C222.823 151.606 208.562 151.687 198.919 160.114L195.354 163.274L178.662 153.065L162.051 142.936L162.456 137.507C164.158 113.685 135.393 101.287 118.701 118.628C114.082 123.408 111.976 128.675 111.976 135.887C111.976 140.505 112.462 142.936 113.839 146.015L115.703 149.985L95.3649 170.324L75.0268 190.743L72.4339 188.312C67.9773 184.098 61.8192 181.83 55.0938 181.83C49.908 181.83 48.4495 182.154 43.7499 184.585C21.9533 195.685 26.896 228.421 50.9614 232.148C62.6295 233.931 72.5959 228.745 78.1869 218.13C80.1316 214.565 80.3747 213.107 80.3747 206.543V199.089L122.509 156.954L126.804 159.142C135.474 163.436 147.304 161.41 154.84 154.28L158 151.282L174.287 161.248L190.492 171.215L190.573 178.426C190.573 184.747 190.897 186.367 192.842 190.338C195.435 195.604 200.135 200.142 205.482 202.573C211.316 205.328 220.716 205.085 226.793 202.087C236.03 197.549 241.702 187.988 241.054 178.021C240.811 175.104 240.487 172.268 240.325 171.62C240.163 170.891 245.51 166.191 254.91 158.98L269.819 147.474L274.276 150.148C284.161 156.144 296.882 154.604 305.147 146.339C309.928 141.478 312.035 136.616 312.359 129.323C312.683 123.894 312.359 122.436 310.495 118.141C307.902 112.469 302.879 107.365 297.288 104.934C293.236 103.151 285.214 102.341 281.244 103.394ZM294.614 114.009C304.985 119.276 306.525 132.726 297.693 140.505C285.782 150.958 268.522 140.181 271.521 124.137C272.169 120.734 276.949 115.062 280.515 113.523C284.161 111.902 291.048 112.145 294.614 114.009ZM146.17 122.355C155.65 128.918 155.65 142.855 146.251 149.337C142.604 151.93 136.608 152.74 132.233 151.282C128.425 149.985 123.806 145.934 122.428 142.612C121.051 139.452 120.97 132.807 122.185 129.647C125.507 120.734 138.31 116.845 146.17 122.355ZM219.987 163.598C222.498 164.246 224.767 165.624 227.117 167.893C237.327 178.183 230.277 195.28 215.692 195.28C211.398 195.28 206.212 193.174 203.862 190.5C195.921 181.424 199.891 166.758 211.235 163.598C215.044 162.464 215.611 162.464 219.987 163.598ZM61.5761 192.282C64.8983 193.984 68.4635 197.306 69.841 199.899C75.1078 210.271 66.843 223.478 55.0938 223.397C45.7756 223.316 37.4297 213.674 39.0502 204.842C40.1036 199.332 43.993 194.227 48.7736 192.12C52.0958 190.662 58.497 190.743 61.5761 192.282Z" stroke="#3CBAB1" stroke-width="4" mask="url(#path-2-outside-1_12_225)"/>
<path d="M303.203 184.098C298.746 185.152 294.29 186.286 293.317 186.529C290.238 187.259 285.863 191.715 284.971 195.037C284.161 197.873 284.647 201.925 286.187 207.273C286.511 208.083 285.133 209.541 282.216 211.567L277.841 214.565L273.141 211.648C267.469 208.245 262.607 207.84 258.394 210.433C256.044 211.891 247.698 223.64 244.133 230.609C240.973 236.605 243.323 243.249 250.048 247.544C252.56 249.083 254.667 250.461 254.829 250.542C254.991 250.704 254.667 253.135 254.18 256.052L253.208 261.399L249.886 261.886C241.378 263.263 236.354 267.882 236.354 274.364C236.354 278.902 240.244 296.161 241.945 298.997C242.674 300.293 244.457 302.076 245.916 302.967C248.265 304.425 249.481 304.588 254.018 304.182C257.016 303.858 260.177 303.453 261.149 303.21C262.445 302.805 263.337 303.534 265.686 307.099L268.604 311.394L265.768 316.013C262.445 321.522 261.959 326.222 264.39 330.436C266.173 333.515 281.892 344.372 286.754 345.831C292.831 347.695 298.26 345.021 302.392 337.971L304.58 334.244L308.713 334.811C314.547 335.621 315.438 336.27 316.086 340.24C316.896 345.426 318.922 348.91 322.406 351.179C325.161 353.042 326.053 353.205 330.59 352.799C337.883 352.07 351.252 348.586 353.764 346.803C358.383 343.4 359.436 338.376 357.492 329.058C357.005 326.789 357.249 326.303 361.138 323.548L365.27 320.55L369.97 323.467C375.642 326.87 380.828 327.275 385.041 324.683C387.715 323.062 398.087 307.586 400.031 302.481C401.895 297.457 399.221 291.704 393.063 287.653L388.525 284.655L389.093 279.793C389.417 277.038 389.822 274.607 389.984 274.364C390.146 274.04 392.577 273.392 395.332 272.824C401.49 271.69 406.028 267.72 406.919 262.858C407.648 259.293 403.273 238.955 401.247 235.794C398.168 231.176 392.577 229.717 384.636 231.581C381.152 232.391 380.99 232.31 378.802 229.717C374.589 224.532 374.508 224.126 377.344 219.427C380.747 213.917 381.314 209.379 379.126 205.004C377.749 202.411 375.642 200.628 368.268 196.01C355.223 187.826 353.602 187.34 347.768 190.176C345.418 191.31 343.636 193.093 341.691 196.253L338.855 200.79L334.48 200.304C328.24 199.494 328.078 199.413 327.106 194.632C325.972 189.203 323.46 185.314 319.813 183.531C316.167 181.668 313.088 181.749 303.203 184.098ZM315.924 191.958C316.572 192.525 317.626 194.794 318.112 197.063C320.462 206.786 320.543 207.029 323.217 207.921C324.594 208.407 326.782 208.812 328.159 208.812C329.456 208.812 333.021 209.379 336.1 210.19C342.663 211.729 342.663 211.81 347.768 203.788C350.28 199.899 351.901 198.278 353.035 198.278C354.737 198.278 370.213 207.84 371.266 209.622C371.591 210.108 370.213 213.188 368.106 216.672C366.081 219.994 364.379 223.559 364.379 224.532C364.379 225.423 365.675 227.854 367.296 229.879C368.917 231.905 371.429 235.47 372.968 237.739C376.128 242.682 376.938 242.844 385.771 240.818C391.361 239.522 393.225 239.765 393.873 241.872C395.008 245.437 397.601 258.482 397.601 260.265C397.601 262.696 396.304 263.425 389.255 264.803C382.772 266.018 380.585 268.044 380.585 272.743C380.585 274.364 380.017 278.01 379.288 280.927C378.64 283.844 378.235 287.004 378.478 287.896C378.802 288.949 381.395 291.137 385.041 293.487C389.093 295.999 391.118 297.781 391.118 298.753C391.118 300.941 381.314 316.418 379.531 316.985C378.64 317.309 375.966 316.175 372.158 313.825C368.836 311.799 365.594 310.097 364.865 310.097C364.136 310.097 361.138 311.961 358.221 314.149C355.304 316.418 351.82 318.767 350.523 319.416C346.715 321.441 346.391 322.981 348.092 330.517C349.065 334.487 349.389 337.647 348.984 338.457C348.416 339.592 344.689 340.564 329.942 343.805C327.187 344.372 326.215 342.995 324.675 336.108C323.865 332.461 322.811 328.977 322.325 328.41C321.758 327.762 319.084 327.032 316.329 326.708C313.574 326.384 309.361 325.574 306.93 325.007C304.499 324.358 301.906 324.034 301.096 324.277C300.367 324.52 298.017 327.438 295.91 330.76C293.074 335.378 291.697 336.837 290.319 336.837C287.888 336.837 272.493 326.951 272.169 325.169C272.007 324.439 273.546 321.117 275.572 317.876C277.598 314.554 279.299 311.313 279.299 310.665C279.299 310.016 278.003 307.91 276.463 306.046C274.924 304.182 272.412 300.698 270.953 298.267C269.414 295.512 267.631 293.649 266.497 293.325C265.443 293.081 261.635 293.487 258.07 294.297C252.56 295.512 251.426 295.512 250.453 294.54C249.805 293.973 248.346 289.192 247.212 283.925C245.591 276.552 245.267 274.202 246.078 273.311C246.564 272.662 249.805 271.528 253.208 270.718C256.611 269.907 260.015 268.773 260.744 268.206C261.554 267.558 262.283 265.208 262.607 262.048C262.851 259.293 263.58 255.16 264.228 252.973C264.795 250.623 265.038 248.111 264.633 247.138C264.309 246.166 261.392 243.735 258.232 241.71C255.072 239.684 252.317 237.496 252.074 236.929C251.588 235.632 262.04 218.616 263.661 217.968C264.309 217.725 267.469 219.184 270.872 221.29C274.194 223.316 277.598 225.018 278.489 225.018C279.38 225.018 282.135 223.397 284.647 221.371C287.078 219.346 290.481 216.996 292.264 216.105C293.965 215.213 295.667 213.755 295.91 212.782C296.234 211.81 295.829 208.002 295.019 204.193C293.965 198.927 293.803 197.225 294.614 196.415C295.343 195.685 306.849 192.525 314.222 191.067C314.466 191.067 315.195 191.472 315.924 191.958Z" stroke="#3CBAB1" stroke-width="4" mask="url(#path-2-outside-1_12_225)"/>
<path d="M308.469 226.071C293.155 231.338 282.054 243.492 278.894 258.644C277.436 265.775 277.436 269.34 278.894 276.228C284.161 301.427 309.928 316.904 333.993 309.449C348.578 304.993 361.462 291.218 364.46 277.038C365.757 270.718 364.946 259.05 362.839 252.973C358.14 239.846 346.391 228.907 333.183 225.504C325.972 223.559 314.952 223.883 308.469 226.071ZM329.78 233.526C344.041 237.253 354.169 248.273 356.357 262.615C360.247 287.328 335.614 308.72 311.792 301.265C295.424 296.161 285.701 282.062 286.835 264.965C287.321 256.133 290.481 249.407 296.882 242.925C305.958 233.85 317.95 230.447 329.78 233.526Z" stroke="#3CBAB1" stroke-width="4" mask="url(#path-2-outside-1_12_225)"/>
</svg>
