<svg width="406" height="285" viewBox="0 0 406 285" fill="none" xmlns="http://www.w3.org/2000/svg">
<path d="M326.779 40.0001C320.45 40.0001 317.285 32.2238 321.806 27.7931C323.162 26.3463 325.061 25.5325 326.779 25.5325C330.487 25.5325 334.013 29.059 334.013 32.7663C334.013 36.4736 330.487 40.0001 326.779 40.0001Z" fill="#3CBAB1"/>
<path d="M343.507 27.7931C338.986 32.2238 342.151 40.0001 348.481 40.0001C352.188 40.0001 355.714 36.4736 355.714 32.7663C355.714 29.059 352.188 25.5325 348.481 25.5325C346.763 25.5325 344.864 26.3463 343.507 27.7931Z" fill="#3CBAB1"/>
<path d="M370.182 40.0001C363.852 40.0001 360.688 32.2238 365.209 27.7931C366.565 26.3463 368.464 25.5325 370.182 25.5325C373.889 25.5325 377.416 29.059 377.416 32.7663C377.416 36.4736 373.889 40.0001 370.182 40.0001Z" fill="#3CBAB1"/>
<path fill-rule="evenodd" clip-rule="evenodd" d="M13.8217 0.989755C12.3189 1.46435 9.47131 3.36275 7.33565 5.26112C6.85898 5.69345 6.41803 6.0481 6.01015 6.37616C5.55412 6.74294 5.13943 7.07648 4.76236 7.44816C0.979033 11.1773 0.981092 18.7468 1.00381 102.262L1.00386 102.348C1.00574 109.288 1.00775 116.751 1.00775 124.779C1.00775 157.921 0.894407 187.51 0.803404 211.266V211.284C0.666364 247.052 0.58 269.591 1.00783 271.112C2.2734 275.462 8.83861 282.028 13.189 283.293C15.7202 284.005 94.9067 284.25 211.973 284.25H338.213C343.876 284.25 346.691 277.386 342.659 273.41V273.41C341.474 272.241 339.877 271.586 338.213 271.586L16.5831 271.579L14.6919 269.53L12.7144 267.394L13.4948 61.1048L13.5419 61.1558L393.338 63.2405V214.669C393.338 218.165 396.172 221 399.669 221V221C403.165 221 406 218.164 406 214.667C406 213.395 406 213.336 406 212.5C406 212.104 405.994 185.053 405.994 125.096C405.994 117.015 405.996 109.505 405.998 102.524C406.02 18.7564 406.022 11.1782 402.235 7.44496C401.858 7.07364 401.444 6.74035 400.988 6.37391L400.987 6.37312C400.58 6.04583 400.141 5.69207 399.666 5.26112C397.609 3.36275 394.445 1.38525 392.705 0.910653C388.513 -0.354928 17.7767 -0.275827 13.8217 0.989755ZM393.338 50.5847L13.5425 48.5L13.6636 16.4931L15.641 14.5947L17.5394 12.6173H389.462L391.36 14.5947C391.689 14.9107 391.964 15.1745 392.193 15.4729C393.338 16.9669 393.338 19.3384 393.338 33.5784V50.5847Z" fill="#3CBAB1"/>
<path fill-rule="evenodd" clip-rule="evenodd" d="M261.638 76.6873C231.739 81.4332 207.614 103.423 199.388 133.559C196.936 142.26 196.936 161.402 199.388 170.103C210.62 211.313 250.564 235.28 291.3 225.393C299.21 223.495 311.312 217.879 317.166 213.528C319.38 211.788 321.595 210.364 321.991 210.364C322.386 210.364 323.494 211.234 324.443 212.263C326.183 214.082 326.183 214.161 324.838 218.195C323.968 221.043 323.652 223.653 323.968 226.579C324.838 235.043 326.183 236.862 348.884 259.564C372.693 283.372 373.879 284.242 383.45 284.242C400.14 284.322 410.502 268.027 403.621 252.603C402.355 249.676 397.134 243.902 380.84 227.687C367.156 214.003 358.534 205.935 356.24 204.827C351.415 202.375 345.562 201.98 340.025 203.562C335.437 204.906 335.358 204.906 333.539 203.166C332.511 202.217 331.641 201.11 331.641 200.793C331.641 200.398 333.223 197.867 335.2 195.019C340.104 188.137 344.534 178.25 346.749 169.628C349.28 159.741 349.359 144.317 346.828 134.113C344.771 125.729 339.392 114.101 334.488 107.219C324.838 93.6144 308.386 82.5406 291.379 78.1902C284.419 76.3709 268.836 75.5799 261.638 76.6873ZM292.091 91.637C319.855 100.496 337.969 126.836 336.07 155.786C335.121 171.527 328.872 185.29 317.64 196.443C306.329 207.675 292.803 213.845 277.063 214.794C247.084 216.771 220.428 197.629 212.043 168.046C209.512 159.029 209.512 144.554 212.043 135.616C216.868 119.005 226.677 106.191 241.705 97.0156C246.847 93.9308 256.576 90.4505 263.22 89.3431C270.893 87.9984 283.865 89.1058 292.091 91.637ZM350.071 215.98C352.523 217.246 390.807 255.451 392.23 257.982C396.423 265.892 387.168 275.146 379.258 270.954C376.727 269.53 338.522 231.246 337.257 228.794C333.539 221.438 342.715 212.263 350.071 215.98Z" fill="#3CBAB1"/>
<path d="M153.065 89.4222C149.347 93.0607 151.246 98.914 156.466 99.9423C158.847 100.447 154.247 104.326 136.855 118.988L136.812 119.024C135.148 120.427 133.367 121.928 131.464 123.535C110.977 140.778 109.474 141.886 108.446 140.541C107.813 139.671 105.756 136.111 103.779 132.631C99.6658 125.038 98.8749 124.247 95.3154 124.167C93.0215 124.088 89.3039 126.857 63.8341 147.66C48.0143 160.632 34.2512 172.101 33.302 173.209C30.8499 175.74 30.929 179.299 33.4602 181.751C35.9122 184.283 39.3926 184.282 42.3192 181.91C43.5057 180.881 55.5287 170.994 68.9755 159.999C82.5014 148.925 93.5752 140.225 93.7334 140.699C93.8505 140.992 95.0937 143.19 96.7259 146.077L96.7389 146.1C97.3088 147.107 97.9257 148.198 98.5585 149.321C103.463 157.784 105.519 159.445 109.316 157.943C110.658 157.454 147.265 127.296 166.396 111.104C166.121 114.312 168.439 117.183 171.66 117.57C174.95 117.965 177.937 115.618 178.332 112.328L180 98.4273C180.181 96.9175 179.785 95.4715 178.985 94.3106C178.767 93.8501 178.485 93.4045 178.139 92.9816C177.032 91.637 174.659 90.846 167.698 89.3431C156.229 87.0492 155.359 87.0492 153.065 89.4222Z" fill="#3CBAB1"/>
<path d="M169.86 130.66C168.813 131.15 167.505 132.719 166.981 133.993C165.673 137.425 165.673 200.073 166.981 203.406C168.377 206.838 172.302 208.504 175.53 207.034C176.838 206.347 178.408 204.681 179.019 203.406C180.327 200.073 180.327 137.425 179.019 134.091C178.059 131.738 174.832 129.385 172.738 129.581C172.128 129.581 170.819 130.072 169.86 130.66Z" fill="#3CBAB1"/>
<path d="M85.9813 164.476C86.5047 163.351 87.8131 161.965 88.8598 161.532C89.8193 161.013 91.1277 160.58 91.7383 160.58C93.8318 160.407 97.0592 162.485 98.0187 164.563C99.3271 167.42 99.3271 202.054 98.0187 204.998C95.7508 209.76 88.2492 209.76 85.9813 204.998C84.6729 202.054 84.6729 167.42 85.9813 164.476Z" fill="#3CBAB1"/>
<path d="M142.86 146.833C141.813 147.401 140.505 149.22 139.981 150.697C138.673 154.561 138.673 200.018 139.981 203.882C142.249 210.133 149.751 210.133 152.019 203.882C153.327 200.018 153.327 154.561 152.019 150.811C151.059 148.083 147.832 145.356 145.738 145.583C145.128 145.583 143.819 146.151 142.86 146.833Z" fill="#3CBAB1"/>
<path d="M58.9813 181.423C59.5047 180.601 60.8131 179.589 61.8598 179.273C62.8193 178.894 64.1277 178.577 64.7383 178.577C66.8318 178.451 70.0592 179.969 71.0187 181.486C72.3271 183.573 72.3271 203.874 71.0187 205.961C68.7508 209.44 61.2492 209.44 58.9813 205.961C57.6729 203.874 57.6729 183.573 58.9813 181.423Z" fill="#3CBAB1"/>
<path d="M115.86 169.507C114.813 169.929 113.505 171.278 112.981 172.374C111.673 175.241 111.673 202.309 112.981 205.092C115.249 209.729 122.751 209.729 125.019 205.092C126.327 202.309 126.327 175.241 125.019 172.459C124.059 170.435 120.832 168.411 118.738 168.58C118.128 168.58 116.819 169.001 115.86 169.507Z" fill="#3CBAB1"/>
<path d="M32 199.645C32 194.113 32.8151 192.117 35.5862 191.204C36.4828 190.862 37.7054 190.577 38.2759 190.577C40.232 190.463 43.2477 191.831 44.1442 193.2C45.2853 194.968 45.2853 204.322 44.1442 206.148C42.8401 208.144 39.1724 209.114 36.1567 208.258C32.8966 207.288 32 205.463 32 199.645Z" fill="#3CBAB1"/>
<path d="M35.5147 221.129C34.2742 221.651 32.7236 223.132 32 224.525C30.4494 227.747 32.2068 231.666 35.8248 233.059C39.4428 234.453 171.553 234.453 175.171 233.059C180.856 230.795 180.856 223.306 175.171 221.041C171.656 219.735 38.8226 219.822 35.5147 221.129Z" fill="#3CBAB1"/>
<path d="M304.659 117.084L304.59 117.022L304.515 116.967C284.568 102.148 261.556 103.015 245.219 115.551L245.208 115.56L245.196 115.569C235.567 123.187 229.64 134.49 228.248 146.507L228.246 146.519L228.245 146.53C227.037 158.131 230.311 170.248 237.712 179.434L237.715 179.438L238.275 180.129C238.773 180.775 239.286 181.428 239.824 182.076L239.85 182.107L239.878 182.138C247.485 190.552 258.751 196.235 270.188 196.961L270.218 196.962L270.248 196.963C283.579 197.413 295.824 193.749 305.884 184.559L305.912 184.534L305.939 184.508C314.798 175.789 319.93 164.277 319.996 151.814L319.996 151.811L319.998 151.223C319.998 151.222 319.998 151.221 319.998 151.219C320.027 147.475 319.688 143.776 318.735 140.063L318.73 140.045L318.725 140.027L318.658 139.786L318.595 139.557C318.595 139.556 318.594 139.554 318.594 139.553C316.214 130.822 311.379 123.117 304.659 117.084ZM304.677 174.451C303.779 175.647 302.947 176.755 302.065 177.694C301.019 171.868 298.642 165.901 293.59 161.839L293.572 161.824L293.554 161.811L293.12 161.477C291.176 159.894 289.176 158.715 287.074 157.694C289.238 155.872 290.924 153.599 292.152 151.091L292.179 151.036L292.202 150.98C294.321 145.895 294.398 140.595 292.545 135.432L292.529 135.386L292.51 135.341C290.517 130.536 287.014 126.847 282.227 124.688L282.208 124.68L282.188 124.672C277.214 122.552 271.552 122.456 266.501 124.414L266.449 124.434L266.398 124.457C261.315 126.761 257.556 130.459 255.446 135.695L255.436 135.719L255.427 135.743C253.689 140.403 253.729 145.879 255.798 150.501L255.812 150.534L255.828 150.566L256.094 151.107C257.322 153.658 258.906 155.828 261.067 157.668C257.99 159.122 254.911 160.974 252.531 163.846L252.531 163.846L252.524 163.856L252.157 164.304C248.554 168.295 246.942 172.851 246.1 177.613C246.031 177.529 245.957 177.438 245.877 177.34L245.854 177.311L245.829 177.283C238.754 169.237 234.934 159.329 235.603 148.671C236.299 139.728 240.252 130.009 246.96 124.158C247.288 123.883 247.614 123.607 247.939 123.331L247.976 123.299L248.011 123.266C250.681 120.758 253.62 118.637 256.873 117.079L257.335 116.863L257.337 116.862C270.927 110.475 286.665 112.383 298.413 121.67L299.051 122.192L299.052 122.193C299.919 122.9 300.607 123.499 301.217 124.221C301.636 124.73 302.059 125.204 302.503 125.676L302.509 125.682L302.515 125.688C307.036 130.415 310.023 136.267 311.596 142.673C311.596 142.675 311.597 142.677 311.597 142.679L311.732 143.242L311.734 143.25L311.736 143.258C312.915 148.013 313.045 154.113 311.867 158.799C311.866 158.802 311.865 158.805 311.865 158.807L311.741 159.28L311.738 159.292L311.735 159.304C310.471 164.417 308.54 169.213 305.496 173.369L305.054 173.949L305.048 173.958C304.923 174.123 304.799 174.288 304.677 174.451ZM283.711 134.885L283.722 134.899L283.734 134.914C284.791 136.282 285.525 137.466 285.972 138.904C286.975 142.66 286.662 145.813 284.773 149.2C282.917 152.063 280.049 154.076 276.718 154.877C273.201 155.504 269.908 154.817 266.895 152.874C264.024 150.756 262.226 147.867 261.605 144.381C261.214 141.199 262.085 137.989 263.973 135.316C266.541 132.115 270.521 130.107 274.577 130.237C278.085 130.682 281.433 132.001 283.395 134.459L283.711 134.885ZM253.504 177.277L253.508 177.263C254.282 174.068 255.899 171.199 258.113 168.608C261.872 164.662 267.382 162.483 273.083 162.242C278.788 162 284.488 163.708 288.6 167.279C292.709 171.18 294.945 176.019 295.151 181.609C295.151 181.613 295.151 181.616 295.152 181.619L295.168 182.26L295.168 182.278L295.169 182.296C295.185 182.659 295.194 183.02 295.197 183.379C295.196 183.387 295.196 183.395 295.195 183.402C294.871 183.563 294.523 183.742 294.179 183.945L294.168 183.952L294.157 183.958C290.494 186.178 286.57 187.779 282.398 188.699C282.396 188.699 282.394 188.7 282.391 188.7L281.853 188.814L281.848 188.816C277.468 189.758 272.631 189.943 268.247 189.212L267.438 189.045L267.426 189.043C263.347 188.227 259.587 186.977 255.975 185.043C255.505 184.791 254.999 184.533 254.434 184.305L254.42 184.299L254.406 184.294C253.669 184.009 253.261 183.807 252.935 183.518C252.795 182.636 252.88 181.648 253.015 180.381C253.016 180.377 253.016 180.374 253.016 180.37L253.081 179.822L253.083 179.804L253.085 179.787C253.154 179.094 253.231 178.48 253.355 177.874L253.504 177.277Z" fill="#3CBAB1" stroke="#3CBAB1" stroke-width="4"/>
</svg>
