<svg width="405" height="389" viewBox="0 0 405 389" fill="none" xmlns="http://www.w3.org/2000/svg">
<path d="M14.7853 0.52327C8.95569 2.29751 4.56233 6.01497 1.60527 11.5912C0.0844876 14.4637 0 19.2795 0 141.702V268.856L1.85873 272.236C3.97092 276.206 7.26594 279.417 11.4058 281.614C14.1939 283.134 17.7424 283.219 78.1511 283.472C123.436 283.641 142.531 283.388 144.136 282.712C149.036 280.769 149.205 273.249 144.389 271.053C142.869 270.377 124.45 270.123 79.7563 270.123H17.2355L15.2078 268.011L13.0956 265.983V17.4208L15.2078 15.3931L17.2355 13.2809H387.46L389.488 15.3931L391.6 17.4208V113.737C391.6 183.524 391.854 210.644 392.53 212.165C394.726 216.896 402.246 216.812 404.189 211.996C404.865 210.391 405.118 181.834 404.949 112.131C404.696 18.7726 404.611 14.3792 403.091 11.5912C400.894 7.45126 397.683 4.15624 393.712 2.04405L390.333 0.18532L203.615 0.0163444C100.963 -0.0681432 15.9682 0.18532 14.7853 0.52327Z" fill="#3CBAB1"/>
<path d="M226.427 68.2824C225.498 68.7893 210.29 83.6592 192.547 101.317L160.358 133.338L134.589 120.496C113.72 110.104 108.398 107.738 106.539 108.245C103.751 108.921 42.6663 162.993 41.061 166.288C38.4419 171.442 44.187 177.103 49.4253 174.568C51.284 173.639 76.6303 151.587 105.441 125.734L108.736 122.777L134.673 135.788C156.64 146.687 161.118 148.63 163.146 148.123C164.835 147.701 175.65 137.478 198.124 115.089L230.651 82.6453L252.196 96.1633C281.09 114.413 282.104 115.004 284.977 114.244C287.765 113.568 335.921 66.7507 337.357 63.2023C339.301 58.3865 334.485 52.9792 329.5 54.5C328.402 54.838 301.198 80.6176 294.439 87.2077L282.189 99.2894L262.757 87.0387C229.468 66.1702 229.975 66.4237 226.427 68.2824Z" fill="#3CBAB1"/>
<path d="M327.728 95.4029C326.714 95.8254 325.446 97.1772 324.94 98.2755C323.588 101.233 323.588 195.69 324.94 198.647C327.136 203.294 334.402 203.294 336.599 198.647C337.866 195.69 337.951 101.233 336.599 98.36C335.669 96.3323 332.543 94.3046 330.516 94.4736C329.924 94.4736 328.657 94.896 327.728 95.4029Z" fill="#3CBAB1"/>
<path d="M248.051 123.373C241.968 125.57 237.237 129.034 234.28 133.512C229.126 141.369 229.211 139.679 229.211 210.057L229.126 274.352L222.114 259.99C213.918 243.261 209.947 238.192 201.921 234.221C195.162 230.926 189.079 230.25 181.644 232.024C171.928 234.305 169 245.529 169 249.5C169 250.176 169.816 262.524 175.645 285.336C185.361 323.017 186.798 327.749 191.36 337.549C203.949 365.092 222.705 379.819 232.675 386.493C237.49 389.619 240.025 389.788 242.729 387C245.517 384.296 245.517 380.41 242.813 377.875C232.675 370 232.675 370.5 225.5 363.5C221 358 211.806 348.702 207.244 339.408L198.88 322.51L189.586 286.181C184.517 266.157 181.813 252.977 181.644 252.048C180.726 247 183.803 243.76 186 243C193.519 240.381 197.95 245.373 202.681 252.048C204.202 254.075 209.525 264.467 214.679 275.197C231.83 311.105 230.731 309.161 233.435 310.26C236.392 311.443 240.447 310.26 241.63 307.894C241.968 307.049 242.475 269.875 242.729 225.181C243.151 144.748 243.151 143.903 244.925 141.622C248.22 137.144 250.924 135.793 256.247 135.793C261.569 135.793 264.273 137.144 267.568 141.622C269.342 143.903 269.342 145.086 269.765 194.765C270.018 222.73 270.525 246.218 270.863 247.063C272.046 249.429 276.101 250.611 278.974 249.429C281.593 248.415 282.776 246.134 283.705 240.557C284.465 236.249 289.366 231.179 293.675 230.419C298.068 229.574 302.208 230.503 305.334 233.122C308.882 236.164 310.319 239.881 310.319 245.965C310.319 252.132 311.502 254.92 314.628 256.272C316.571 257.032 317.669 257.032 319.528 256.188C322.147 255.174 323.33 252.893 324.259 247.316C325.02 243.008 329.92 237.938 334.229 237.178C338.622 236.333 342.762 237.262 345.888 239.881C349.859 243.261 350.873 246.556 350.873 256.103C350.873 260.75 351.295 265.481 351.802 266.664C353.154 269.621 356.956 271.057 360.082 269.706C362.701 268.692 363.884 266.411 364.813 260.834C365.574 256.526 370.474 251.456 374.783 250.696C381.457 249.429 387.878 252.639 390.244 258.469C393 259.5 390.244 307.894 375 361C373.5 367.5 358.433 373.807 356.774 375C355.652 375.807 355 378.888 355 381C355 382.014 355.76 383.873 356.774 385.14C360.238 389.533 374 382 381.5 376.03C394 363 404.5 269 403.5 266V258.469L402.5 253L402.326 252.724C396.496 240.388 382.302 233.967 370.305 238.192C367.77 239.121 364.982 240.135 364.222 240.473C363.124 240.98 362.363 240.304 361.096 237.685C358.561 232.785 353.914 228.476 348.423 225.857C344.621 224.082 342.424 223.66 337.355 223.66C331.863 223.66 330.173 223.998 325.527 226.363L320.035 229.067L316.233 225.181C307.7 216.478 296.463 214.451 284.381 219.52C283.621 219.858 283.283 211.156 283.114 181.247L282.86 142.552L280.664 137.82C274.834 125.485 260.302 118.98 248.051 123.373Z" fill="#3CBAB1"/>
<path d="M367.739 118.939C366.725 119.362 365.457 120.713 364.951 121.812C363.683 124.684 363.683 145.201 364.951 147.989C367.147 152.636 374.413 152.636 376.61 147.989C377.877 145.201 377.877 124.684 376.61 121.896C375.68 119.869 372.554 117.841 370.527 118.01C369.935 118.01 368.668 118.432 367.739 118.939Z" fill="#3CBAB1"/>
<path d="M300.692 129.198C299.678 129.62 298.41 130.972 297.904 132.071C296.636 135.028 296.636 195.774 297.904 198.647C300.1 203.294 307.366 203.294 309.563 198.647C310.83 195.774 310.83 135.028 309.563 132.155C308.633 130.127 305.507 128.1 303.48 128.269C302.888 128.269 301.621 128.691 300.692 129.198Z" fill="#3CBAB1"/>
<path d="M206.065 135.957C205.052 136.379 203.784 137.731 203.277 138.83C202.01 141.787 202.01 195.774 203.277 198.647C204.629 201.604 208.431 203.04 211.557 201.773C212.824 201.181 214.345 199.745 214.937 198.647C216.204 195.774 216.204 141.787 214.937 138.914C214.007 136.886 210.881 134.859 208.853 135.028C208.262 135.028 206.995 135.45 206.065 135.957Z" fill="#3CBAB1"/>
<path d="M124.957 156.234C123.943 156.656 122.676 158.008 122.169 159.107C120.902 161.979 120.902 195.774 122.169 198.647C124.366 203.294 131.632 203.294 133.828 198.647C135.096 195.774 135.096 161.979 133.828 159.191C132.899 157.163 129.773 155.136 127.745 155.305C127.154 155.305 125.887 155.727 124.957 156.234Z" fill="#3CBAB1"/>
<path d="M179.029 156.234C178.015 156.656 176.748 158.008 176.241 159.107C174.974 161.979 174.974 195.774 176.241 198.647C178.438 203.294 185.704 203.294 187.901 198.647C189.168 195.774 189.168 161.979 187.901 159.191C186.971 157.163 183.845 155.136 181.817 155.305C181.226 155.305 179.959 155.727 179.029 156.234Z" fill="#3CBAB1"/>
<path d="M97.9212 162.993C96.9073 163.415 95.64 164.767 95.1331 165.866C93.8658 168.738 93.8658 195.859 95.1331 198.647C97.3298 203.294 104.596 203.294 106.792 198.647C108.06 195.859 108.06 168.738 106.792 165.95C105.863 163.922 102.737 161.895 100.709 162.064C100.118 162.064 98.8506 162.486 97.9212 162.993Z" fill="#3CBAB1"/>
<path d="M151.993 162.993C150.979 163.415 149.712 164.767 149.205 165.866C147.938 168.738 147.938 195.859 149.205 198.647C151.402 203.294 158.668 203.294 160.864 198.647C162.132 195.859 162.132 168.738 160.864 165.95C159.935 163.922 156.809 161.895 154.781 162.064C154.19 162.064 152.923 162.486 151.993 162.993Z" fill="#3CBAB1"/>
<path d="M70.8851 176.511C68.0125 177.863 67.1677 180.82 67.1677 189.015C67.1677 197.633 68.097 200.337 71.4765 201.773C74.6026 203.04 78.4045 201.604 79.7563 198.647C80.9392 195.943 80.9392 182.087 79.7563 179.468C78.827 177.44 75.7009 175.413 73.6732 175.582C73.0818 175.582 71.8145 176.004 70.8851 176.511Z" fill="#3CBAB1"/>
<path d="M43.7646 190.029C39.1178 192.31 39.5402 199.661 44.4405 201.688C51.9599 204.814 57.1981 193.324 49.7632 189.945C47.2286 188.846 46.2147 188.846 43.7646 190.029Z" fill="#3CBAB1"/>
<path d="M43.7646 217.065C42.7507 217.572 41.4834 219.008 40.892 220.36C39.6247 223.486 41.061 227.288 44.0181 228.64C46.9751 229.992 154.95 229.992 157.907 228.64C162.554 226.443 162.554 219.177 157.907 216.981C155.035 215.713 46.4682 215.798 43.7646 217.065Z" fill="#3CBAB1"/>
<path d="M8.02631 47.0845C7.01246 47.5914 5.74515 49.0277 5.15374 50.3795C3.88642 53.5055 5.32271 57.3075 8.27978 58.6593C11.2368 60.0111 153.907 59.5845 157.907 59.5845C162.554 57.3878 162.554 49.2812 157.907 47.0845C154.907 47.0845 10.7299 45.8172 8.02631 47.0845Z" fill="#3CBAB1"/>
</svg>
