<svg width="406" height="320" viewBox="0 0 406 320" fill="none" xmlns="http://www.w3.org/2000/svg">
<path d="M149.503 268.5C148.003 268.5 138.882 268.606 137.882 268.606C133.503 270 131.5 278.5 137.379 280C143.257 281.5 327.295 279.919 331.048 279.5C337.206 278.812 337.29 268.176 331.048 268C327.05 267.887 154.503 268.5 149.503 268.5Z" fill="#3CBAB1"/>
<path d="M298.379 188.276C297.332 188.822 296.023 190.572 295.5 191.994C294.192 195.821 294.192 247.131 295.5 250.849C296.896 254.676 300.821 256.535 304.048 254.895C305.357 254.129 306.927 252.27 307.537 250.849C308.846 247.131 308.846 195.821 307.537 192.103C306.578 189.478 303.351 186.854 301.257 187.073C300.646 187.073 299.338 187.619 298.379 188.276Z" fill="#3CBAB1"/>
<path d="M325.379 177.429C324.332 178.045 323.023 180.016 322.5 181.617C321.192 185.929 321.192 246.074 322.5 250.262C323.896 254.573 327.821 256.667 331.048 254.819C332.357 253.957 333.927 251.863 334.537 250.262C335.846 246.074 335.846 185.929 334.537 181.741C333.578 178.784 330.351 175.828 328.257 176.074C327.646 176.074 326.338 176.69 325.379 177.429Z" fill="#3CBAB1"/>
<path d="M244.379 188.276C243.332 188.822 242.023 190.572 241.5 191.994C240.192 195.821 240.192 247.131 241.5 250.849C242.896 254.676 246.821 256.535 250.048 254.895C251.357 254.129 252.927 252.27 253.537 250.849C254.846 247.131 254.846 195.821 253.537 192.103C252.578 189.478 249.351 186.854 247.257 187.073C246.646 187.073 245.338 187.619 244.379 188.276Z" fill="#3CBAB1"/>
<path d="M137.379 211.94C136.332 212.336 135.023 213.603 134.5 214.633C133.192 217.404 133.192 249.438 134.5 252.13C135.896 254.902 139.821 256.248 143.048 255.06C144.357 254.506 145.927 253.159 146.537 252.13C147.846 249.438 147.846 217.404 146.537 214.712C145.578 212.811 142.351 210.911 140.257 211.069C139.646 211.069 138.338 211.465 137.379 211.94Z" fill="#3CBAB1"/>
<path d="M163.379 199.122C162.332 199.6 161.023 201.128 160.5 202.37C159.192 205.713 159.192 248.188 160.5 251.436C161.896 254.779 165.821 256.403 169.048 254.971C170.357 254.302 171.927 252.678 172.537 251.436C173.846 248.188 173.846 205.713 172.537 202.465C171.578 200.173 168.351 197.88 166.257 198.071C165.646 198.071 164.338 198.549 163.379 199.122Z" fill="#3CBAB1"/>
<path d="M217.379 216.243C216.332 216.775 215.023 218.478 214.5 219.862C213.192 223.48 213.192 247.484 214.5 251.103C216.768 256.956 224.27 256.956 226.537 251.103C227.846 247.484 227.846 223.48 226.537 219.968C225.578 217.414 222.351 214.86 220.257 215.072C219.646 215.072 218.338 215.604 217.379 216.243Z" fill="#3CBAB1"/>
<path d="M271.379 195.664C270.332 196.386 269.023 198.695 268.5 200.571C267.192 205.477 267.192 244.634 268.5 249.54C270.768 257.477 278.27 257.477 280.537 249.54C281.846 244.634 281.846 205.477 280.537 200.715C279.578 197.252 276.351 193.788 274.257 194.077C273.646 194.077 272.338 194.798 271.379 195.664Z" fill="#3CBAB1"/>
<path d="M190.379 221.325C189.332 221.895 188.023 223.716 187.5 225.196C186.192 229.066 186.192 247.041 187.5 250.797C189.768 257.058 197.27 257.058 199.537 250.797C200.846 247.041 200.846 229.066 199.537 225.31C198.578 222.578 195.351 219.846 193.257 220.073C192.646 220.073 191.338 220.642 190.379 221.325Z" fill="#3CBAB1"/>
<path d="M318.059 64.2605C313.538 68.6912 316.703 76.4675 323.032 76.4675C326.74 76.4675 330.266 72.941 330.266 69.2337C330.266 65.5264 326.74 61.9999 323.032 61.9999C321.314 61.9999 319.415 62.8137 318.059 64.2605Z" fill="#3CBAB1"/>
<path d="M339.76 64.2605C335.239 68.6912 338.404 76.4675 344.734 76.4675C348.441 76.4675 351.967 72.941 351.967 69.2337C351.967 65.5264 348.441 61.9999 344.734 61.9999C343.016 61.9999 341.117 62.8137 339.76 64.2605Z" fill="#3CBAB1"/>
<path d="M361.462 64.2605C356.941 68.6912 360.105 76.4675 366.435 76.4675C370.142 76.4675 373.669 72.941 373.669 69.2337C373.669 65.5264 370.142 61.9999 366.435 61.9999C364.717 61.9999 362.818 62.8137 361.462 64.2605Z" fill="#3CBAB1"/>
<path d="M90.2564 1.99998C68.5101 5.9368 44.5143 19.6219 22.5806 40.712C8.61429 54.2097 0.365723 64.3329 0.365723 67.9885C0.365723 69.6757 1.77173 72.4878 4.20881 75.6747C11.0514 84.3919 33.36 105.763 42.2647 112.043C86.507 143.069 124.469 143.069 168.337 112.043C185.021 100.233 210.329 73.7063 210.329 68.0823C210.329 64.3329 205.08 57.8653 189.802 42.6804C156.714 9.87362 122.876 -3.99897 90.2564 1.99998ZM123.344 17.841C142.185 22.9026 162.525 36.1191 181.928 55.7094C187.739 61.5209 192.52 67.0512 192.52 67.9885C192.52 70.4256 172.742 90.016 162.525 97.6084C148.371 108.2 136.748 114.199 122.688 118.324C115.658 120.386 96.9115 120.573 89.4128 118.698C76.4775 115.512 60.0741 106.982 46.4827 96.4836C36.6407 88.7974 18.1751 70.2381 18.1751 67.9885C18.1751 65.7389 36.6407 47.1796 46.4827 39.4935C60.449 28.7141 77.7898 19.8094 89.4128 17.4661C92.2248 16.9036 95.4117 16.2475 96.4428 16.06C100.005 15.2164 118.002 16.435 123.344 17.841Z" fill="#3CBAB1"/>
<path d="M96.5365 31.4324C90.6313 32.9321 82.1953 37.9937 78.071 42.3992C76.0088 44.6488 72.9156 49.3355 71.3221 52.8037C68.6039 58.5214 68.3227 59.9274 68.3227 68.0823C68.3227 76.5183 68.5101 77.3619 71.7908 84.1107C76.0088 92.6405 81.4454 97.8896 90.1626 102.014C95.8804 104.732 97.2864 105.013 105.347 105.013C113.409 105.013 114.815 104.732 120.532 102.014C129.25 97.8896 134.686 92.6405 138.904 84.1107C142.185 77.3619 142.372 76.5183 142.372 67.9885C142.372 59.4587 142.185 58.6151 138.904 51.8663C132.53 39.1185 121.282 31.5261 107.41 30.87C103.473 30.6825 98.5987 30.9637 96.5365 31.4324ZM112.284 46.6172C117.439 48.117 125.219 55.8969 126.719 61.0522C129.343 69.8632 127.469 76.8932 120.814 83.4546C116.033 88.3287 111.253 90.4846 105.347 90.4846C93.7245 90.4846 82.8514 79.6115 82.8514 67.9885C82.8514 62.0833 85.0073 57.3029 89.8814 52.5225C96.4428 45.8674 103.473 44.0864 112.284 46.6172Z" fill="#3CBAB1"/>
<path d="M213.307 37.1998C211.807 38.6059 210.964 40.5743 210.964 42.3552C210.964 44.1361 211.807 46.1046 213.307 47.5106L215.557 49.8539H386.339L388.589 52.1972C390.932 54.4469 390.932 54.4469 390.932 74.6933L390.37 86.9725H214.994L212.745 89.3158C209.651 92.3153 209.651 96.627 212.745 99.6265L214.994 101.97H390.37L390.932 300.217L388.589 302.466L386.339 304.81H80.58L78.3304 302.466L75.987 300.217V151.93L73.6437 149.68C70.6442 146.587 66.3325 146.587 63.333 149.68L60.9897 151.93V226.167C60.9897 281.657 61.2709 301.341 62.1145 304.247C63.6142 309.403 71.3941 317.182 76.5494 318.682C79.5489 319.526 116.105 319.807 233.647 319.807C406.68 319.807 392.338 320.463 399.65 312.308C401.899 309.871 404.243 306.122 404.805 304.06C406.398 298.623 406.398 55.9466 404.805 50.4163C403.305 45.261 395.525 37.4811 390.37 35.9813C387.464 35.1377 365.437 34.8565 301.042 34.8565H215.557L213.307 37.1998Z" fill="#3CBAB1"/>
<path d="M295.6 130.164C295.6 126.456 298.575 123.383 302.284 123.337C305.156 123.302 308.029 123.274 310.903 123.251C312.638 123.235 314.373 123.212 316.108 123.184C318.603 123.144 321.096 123.126 323.591 123.111C324.367 123.094 325.142 123.077 325.942 123.06C329.056 123.059 331.214 123.096 333.983 124.577C335.801 127.942 335.539 131.157 335.457 134.916C335.452 135.711 335.447 136.507 335.443 137.327C335.424 139.865 335.383 142.403 335.341 144.941C335.324 146.663 335.309 148.385 335.296 150.107C335.279 152.086 335.257 154.065 335.232 156.044C335.185 159.772 332.193 162.763 328.464 162.763C324.841 162.763 321.799 159.933 321.596 156.315C321.444 153.577 321.29 150.818 321.133 148.014C320.119 149.027 319.104 150.041 318.059 151.085C314.711 154.429 311.361 157.771 308.009 161.112C305.977 163.138 303.945 165.165 301.916 167.194C299.583 169.525 297.247 171.853 294.911 174.18C294.181 174.911 293.451 175.642 292.699 176.395C292.023 177.067 291.347 177.74 290.651 178.433C290.054 179.028 289.458 179.623 288.844 180.236C286.402 182.503 284.274 182.865 280.93 182.809C278.713 182.342 277.783 181.567 276.122 180.044C275.553 179.524 274.983 179.004 274.396 178.468C270.983 175.209 267.63 171.895 264.302 168.55C263.585 167.834 262.868 167.117 262.13 166.378C260.381 164.629 258.634 162.878 256.889 161.124C253.655 162.427 251.49 164.642 249.088 167.073C248.648 167.512 248.209 167.95 247.756 168.402C246.307 169.849 244.864 171.301 243.421 172.753C242.414 173.759 241.407 174.766 240.4 175.771C237.751 178.417 235.107 181.068 232.465 183.72C228.23 187.968 223.989 192.211 219.746 196.452C218.263 197.935 216.783 199.422 215.303 200.909C214.398 201.815 213.492 202.721 212.587 203.627C212.175 204.043 211.762 204.458 211.337 204.887C208.677 207.542 207.456 208.539 203.661 209.06C200.576 209.017 199.221 208.25 196.972 206.184C196.4 205.661 195.829 205.139 195.239 204.6C192.294 201.797 189.391 198.958 186.519 196.081C185.888 195.452 185.258 194.824 184.608 194.176C182.618 192.191 180.63 190.204 178.643 188.216C177.284 186.86 175.925 185.505 174.566 184.149C171.256 180.847 167.947 177.542 164.641 174.235C161.501 175.69 159.507 177.516 157.061 179.977C156.663 180.375 156.266 180.773 155.856 181.183C154.594 182.448 153.337 183.719 152.08 184.99C151.223 185.851 150.365 186.712 149.506 187.573C149.063 188.018 148.62 188.463 148.177 188.908C145.202 191.899 140.524 192.841 137.443 189.96C136.977 189.525 136.507 189.06 136.019 188.56C135.36 187.89 135.697 188.25 135.019 187.56C132.946 185.418 134.026 181.402 136.205 179.369C136.329 179.254 136.459 179.129 136.595 178.994C137.084 178.505 137.574 178.015 138.078 177.511C138.868 176.734 138.868 176.734 139.674 175.941C140.216 175.402 140.759 174.863 141.317 174.307C142.462 173.171 143.608 172.037 144.757 170.905C146.518 169.167 148.274 167.423 150.028 165.677C151.14 164.574 152.254 163.472 153.367 162.369C153.894 161.846 154.421 161.323 154.964 160.784C155.453 160.302 155.942 159.821 156.446 159.325C156.877 158.9 157.307 158.475 157.75 158.037C160.014 156.005 162.298 155.781 165.304 155.823C167.552 156.301 168.515 157.128 170.197 158.674C170.769 159.197 171.341 159.719 171.93 160.258C174.875 163.061 177.778 165.9 180.65 168.777C181.281 169.406 181.911 170.034 182.561 170.682C184.552 172.667 186.539 174.654 188.526 176.642C189.885 177.998 191.244 179.353 192.603 180.709C195.914 184.011 199.222 187.316 202.528 190.623C205.762 189.321 207.927 187.106 210.329 184.674C210.989 184.016 210.989 184.016 211.662 183.345C213.11 181.899 214.553 180.447 215.996 178.995C217.003 177.988 218.01 176.982 219.017 175.976C221.666 173.33 224.31 170.68 226.953 168.028C231.188 163.779 235.428 159.536 239.671 155.296C241.154 153.812 242.635 152.325 244.114 150.839C245.02 149.933 245.925 149.027 246.83 148.121C247.243 147.705 247.655 147.289 248.08 146.86C250.74 144.205 251.961 143.208 255.756 142.687C258.794 142.738 260.146 143.448 262.365 145.482C262.934 146.002 263.504 146.523 264.09 147.059C267.504 150.318 270.857 153.632 274.185 156.976C274.902 157.693 275.619 158.409 276.357 159.148C278.106 160.897 279.853 162.649 281.598 164.402C284.03 163.312 285.736 162.126 287.611 160.245C288.121 159.737 288.632 159.228 289.159 158.705C289.7 158.157 290.242 157.61 290.8 157.046C291.362 156.485 291.924 155.923 292.503 155.345C294.294 153.554 296.08 151.757 297.865 149.96C299.08 148.743 300.295 147.527 301.51 146.311C304.486 143.332 307.457 140.348 310.426 137.361C307.632 137.207 304.838 137.052 302.017 136.897C298.417 136.698 295.6 133.77 295.6 130.164Z" fill="#3CBAB1"/>
</svg>
