<svg width="380" height="380" viewBox="0 0 380 380" fill="none" xmlns="http://www.w3.org/2000/svg">
<mask id="path-1-inside-1_12_252" fill="white">
<path d="M243.034 27.052C238.781 31.2195 241.758 38.5338 247.713 38.5338C251.2 38.5338 254.518 35.2169 254.518 31.7298C254.518 28.2427 251.2 24.9257 247.713 24.9257C246.097 24.9257 244.31 25.6912 243.034 27.052Z"/>
<path d="M268.127 38.5338C262.173 38.5338 259.196 31.2195 263.449 27.052C264.725 25.6912 266.511 24.9257 268.127 24.9257C271.615 24.9257 274.932 28.2427 274.932 31.7298C274.932 35.2169 271.615 38.5338 268.127 38.5338Z"/>
<path d="M283.863 27.052C279.61 31.2195 282.587 38.5338 288.542 38.5338C292.029 38.5338 295.347 35.2169 295.347 31.7298C295.347 28.2427 292.029 24.9257 288.542 24.9257C286.926 24.9257 285.139 25.6912 283.863 27.052Z"/>
<path fill-rule="evenodd" clip-rule="evenodd" d="M2.12651 2.12627L1.4462 2.77928C0.522278 3.66613 0 4.89136 0 6.17196V146.117C0 284.664 0 288.151 1.61615 290.107L1.82809 290.375C2.71557 291.496 4.06477 292.152 5.49454 292.159L170.548 292.907C174.587 292.925 177.772 289.509 177.772 285.47V285.47V285.47C177.772 281.733 174.823 278.581 171.085 278.59L18.3222 278.957C15.721 278.962 13.6097 276.855 13.6097 274.254V68.1931C13.6097 65.5957 15.7155 63.4901 18.3132 63.4901H308.319C310.916 63.4901 313.022 65.5957 313.022 68.1931V175.352C313.022 178.243 315.006 180.756 317.769 181.609V181.609C322.075 182.938 326.632 179.845 326.632 175.339V6.17195C326.632 4.89135 326.11 3.66613 325.186 2.77928L324.505 2.12627L323.852 1.44601C322.965 0.52221 321.74 0 320.459 0H6.17268C4.89194 0 3.66658 0.522212 2.77962 1.44602L2.12651 2.12627ZM313.022 45.1791C313.022 47.7764 310.916 49.882 308.319 49.882H18.3132C15.7155 49.882 13.6097 47.7764 13.6097 45.1791V18.311C13.6097 15.7137 15.7155 13.6081 18.3132 13.6081H308.319C310.916 13.6081 313.022 15.7137 313.022 18.311V45.1791Z"/>
<path d="M286.069 249.697C280.115 249.697 277.138 242.383 281.391 238.215C282.666 236.855 284.453 236.089 286.069 236.089C289.556 236.089 292.874 239.406 292.874 242.893C292.874 246.38 289.556 249.697 286.069 249.697Z"/>
<path d="M290.354 260.761C292.559 262.775 292.559 262.943 292.559 278.885V294.996L284.004 303.303C279.242 307.834 274.48 311.778 273.421 312.113C268.924 313.12 264.338 309.344 264.338 304.646C264.338 303.639 267.16 300.198 271.393 296.087L278.448 289.206V275.949C278.448 263.111 278.536 262.775 280.653 260.761C281.976 259.419 283.828 258.663 285.503 258.663C287.179 258.663 289.031 259.419 290.354 260.761Z"/>
<path d="M242.797 292.965C236.842 292.965 233.865 285.65 238.118 281.483C239.394 280.122 241.18 279.356 242.797 279.356C246.284 279.356 249.601 282.673 249.601 286.16C249.601 289.648 246.284 292.965 242.797 292.965Z"/>
<path d="M323.722 281.483C319.469 285.65 322.446 292.965 328.401 292.965C331.888 292.965 335.205 289.648 335.205 286.16C335.205 282.673 331.888 279.356 328.401 279.356C326.784 279.356 324.998 280.122 323.722 281.483Z"/>
<path d="M286.069 336.232C280.115 336.232 277.138 328.918 281.391 324.75C282.666 323.389 284.453 322.624 286.069 322.624C289.556 322.624 292.874 325.941 292.874 329.428C292.874 332.915 289.556 336.232 286.069 336.232Z"/>
<path fill-rule="evenodd" clip-rule="evenodd" d="M276.652 218.659C271.985 219.281 262.572 221.92 258.06 223.939C220.566 240.476 205.941 286.361 226.945 321.531C232.001 329.916 242.036 339.931 250.437 344.978C277.352 360.972 311.813 356.701 333.905 334.652C342.617 325.956 348.763 315.009 352.186 302.277C354.286 294.28 354.208 278.053 351.952 269.746C346.04 248.007 331.027 231.082 310.413 222.852C300.844 219.048 286.92 217.34 276.652 218.659ZM295.866 231.625C303.8 233.178 309.479 235.429 316.091 239.777C323.948 244.901 331.338 253.131 335.305 261.05C340.05 270.678 341.217 275.802 341.139 287.215C341.062 295.522 340.75 297.851 339.039 303.131C336.083 312.059 332.038 318.503 324.881 325.646C317.725 332.789 311.268 336.826 302.322 339.776C297.033 341.484 294.699 341.795 286.376 341.872C274.941 341.95 269.806 340.785 260.161 336.049C248.881 330.459 237.835 318.348 233.479 306.78C227.489 290.941 228.889 272.696 237.135 258.488C240.791 252.277 250.981 241.951 257.049 238.38C268.873 231.47 282.564 229.063 295.866 231.625Z"/>
<path fill-rule="evenodd" clip-rule="evenodd" d="M380 285.47C380 337.678 337.888 380 285.941 380C233.993 380 191.881 337.678 191.881 285.47C191.881 233.263 233.993 190.941 285.941 190.941C337.888 190.941 380 233.263 380 285.47ZM305.792 206.673C321.358 210.84 331.736 216.879 343.219 228.361C354.787 240.013 360.741 250.389 364.994 266.208C367.546 275.564 367.801 294.87 365.505 303.97C361.507 319.79 354.872 331.527 343.219 343.179C331.565 354.831 319.827 361.465 304.006 365.462C294.904 367.758 275.596 367.503 266.239 364.952C250.418 360.699 240.04 354.746 228.387 343.179C216.819 331.612 210.865 321.321 206.527 305.331C204.06 296.061 203.805 276.924 206.101 267.569C209.844 252.43 216.989 239.757 227.962 228.701C240.806 215.688 256.032 207.778 273.469 204.972C281.635 203.696 297.967 204.546 305.792 206.673Z"/>
</mask>
<path d="M243.034 27.052C238.781 31.2195 241.758 38.5338 247.713 38.5338C251.2 38.5338 254.518 35.2169 254.518 31.7298C254.518 28.2427 251.2 24.9257 247.713 24.9257C246.097 24.9257 244.31 25.6912 243.034 27.052Z" fill="#3CBAB1"/>
<path d="M268.127 38.5338C262.173 38.5338 259.196 31.2195 263.449 27.052C264.725 25.6912 266.511 24.9257 268.127 24.9257C271.615 24.9257 274.932 28.2427 274.932 31.7298C274.932 35.2169 271.615 38.5338 268.127 38.5338Z" fill="#3CBAB1"/>
<path d="M283.863 27.052C279.61 31.2195 282.587 38.5338 288.542 38.5338C292.029 38.5338 295.347 35.2169 295.347 31.7298C295.347 28.2427 292.029 24.9257 288.542 24.9257C286.926 24.9257 285.139 25.6912 283.863 27.052Z" fill="#3CBAB1"/>
<path fill-rule="evenodd" clip-rule="evenodd" d="M2.12651 2.12627L1.4462 2.77928C0.522278 3.66613 0 4.89136 0 6.17196V146.117C0 284.664 0 288.151 1.61615 290.107L1.82809 290.375C2.71557 291.496 4.06477 292.152 5.49454 292.159L170.548 292.907C174.587 292.925 177.772 289.509 177.772 285.47V285.47V285.47C177.772 281.733 174.823 278.581 171.085 278.59L18.3222 278.957C15.721 278.962 13.6097 276.855 13.6097 274.254V68.1931C13.6097 65.5957 15.7155 63.4901 18.3132 63.4901H308.319C310.916 63.4901 313.022 65.5957 313.022 68.1931V175.352C313.022 178.243 315.006 180.756 317.769 181.609V181.609C322.075 182.938 326.632 179.845 326.632 175.339V6.17195C326.632 4.89135 326.11 3.66613 325.186 2.77928L324.505 2.12627L323.852 1.44601C322.965 0.52221 321.74 0 320.459 0H6.17268C4.89194 0 3.66658 0.522212 2.77962 1.44602L2.12651 2.12627ZM313.022 45.1791C313.022 47.7764 310.916 49.882 308.319 49.882H18.3132C15.7155 49.882 13.6097 47.7764 13.6097 45.1791V18.311C13.6097 15.7137 15.7155 13.6081 18.3132 13.6081H308.319C310.916 13.6081 313.022 15.7137 313.022 18.311V45.1791Z" fill="#3CBAB1"/>
<path d="M286.069 249.697C280.115 249.697 277.138 242.383 281.391 238.215C282.666 236.855 284.453 236.089 286.069 236.089C289.556 236.089 292.874 239.406 292.874 242.893C292.874 246.38 289.556 249.697 286.069 249.697Z" fill="#3CBAB1"/>
<path d="M290.354 260.761C292.559 262.775 292.559 262.943 292.559 278.885V294.996L284.004 303.303C279.242 307.834 274.48 311.778 273.421 312.113C268.924 313.12 264.338 309.344 264.338 304.646C264.338 303.639 267.16 300.198 271.393 296.087L278.448 289.206V275.949C278.448 263.111 278.536 262.775 280.653 260.761C281.976 259.419 283.828 258.663 285.503 258.663C287.179 258.663 289.031 259.419 290.354 260.761Z" fill="#3CBAB1"/>
<path d="M242.797 292.965C236.842 292.965 233.865 285.65 238.118 281.483C239.394 280.122 241.18 279.356 242.797 279.356C246.284 279.356 249.601 282.673 249.601 286.16C249.601 289.648 246.284 292.965 242.797 292.965Z" fill="#3CBAB1"/>
<path d="M323.722 281.483C319.469 285.65 322.446 292.965 328.401 292.965C331.888 292.965 335.205 289.648 335.205 286.16C335.205 282.673 331.888 279.356 328.401 279.356C326.784 279.356 324.998 280.122 323.722 281.483Z" fill="#3CBAB1"/>
<path d="M286.069 336.232C280.115 336.232 277.138 328.918 281.391 324.75C282.666 323.389 284.453 322.624 286.069 322.624C289.556 322.624 292.874 325.941 292.874 329.428C292.874 332.915 289.556 336.232 286.069 336.232Z" fill="#3CBAB1"/>
<path fill-rule="evenodd" clip-rule="evenodd" d="M276.652 218.659C271.985 219.281 262.572 221.92 258.06 223.939C220.566 240.476 205.941 286.361 226.945 321.531C232.001 329.916 242.036 339.931 250.437 344.978C277.352 360.972 311.813 356.701 333.905 334.652C342.617 325.956 348.763 315.009 352.186 302.277C354.286 294.28 354.208 278.053 351.952 269.746C346.04 248.007 331.027 231.082 310.413 222.852C300.844 219.048 286.92 217.34 276.652 218.659ZM295.866 231.625C303.8 233.178 309.479 235.429 316.091 239.777C323.948 244.901 331.338 253.131 335.305 261.05C340.05 270.678 341.217 275.802 341.139 287.215C341.062 295.522 340.75 297.851 339.039 303.131C336.083 312.059 332.038 318.503 324.881 325.646C317.725 332.789 311.268 336.826 302.322 339.776C297.033 341.484 294.699 341.795 286.376 341.872C274.941 341.95 269.806 340.785 260.161 336.049C248.881 330.459 237.835 318.348 233.479 306.78C227.489 290.941 228.889 272.696 237.135 258.488C240.791 252.277 250.981 241.951 257.049 238.38C268.873 231.47 282.564 229.063 295.866 231.625Z" fill="#3CBAB1"/>
<path fill-rule="evenodd" clip-rule="evenodd" d="M380 285.47C380 337.678 337.888 380 285.941 380C233.993 380 191.881 337.678 191.881 285.47C191.881 233.263 233.993 190.941 285.941 190.941C337.888 190.941 380 233.263 380 285.47ZM305.792 206.673C321.358 210.84 331.736 216.879 343.219 228.361C354.787 240.013 360.741 250.389 364.994 266.208C367.546 275.564 367.801 294.87 365.505 303.97C361.507 319.79 354.872 331.527 343.219 343.179C331.565 354.831 319.827 361.465 304.006 365.462C294.904 367.758 275.596 367.503 266.239 364.952C250.418 360.699 240.04 354.746 228.387 343.179C216.819 331.612 210.865 321.321 206.527 305.331C204.06 296.061 203.805 276.924 206.101 267.569C209.844 252.43 216.989 239.757 227.962 228.701C240.806 215.688 256.032 207.778 273.469 204.972C281.635 203.696 297.967 204.546 305.792 206.673Z" fill="#3CBAB1"/>
<path d="M243.034 27.052C238.781 31.2195 241.758 38.5338 247.713 38.5338C251.2 38.5338 254.518 35.2169 254.518 31.7298C254.518 28.2427 251.2 24.9257 247.713 24.9257C246.097 24.9257 244.31 25.6912 243.034 27.052Z" stroke="#3CBAB1" stroke-width="0.266667" mask="url(#path-1-inside-1_12_252)"/>
<path d="M268.127 38.5338C262.173 38.5338 259.196 31.2195 263.449 27.052C264.725 25.6912 266.511 24.9257 268.127 24.9257C271.615 24.9257 274.932 28.2427 274.932 31.7298C274.932 35.2169 271.615 38.5338 268.127 38.5338Z" stroke="#3CBAB1" stroke-width="0.266667" mask="url(#path-1-inside-1_12_252)"/>
<path d="M283.863 27.052C279.61 31.2195 282.587 38.5338 288.542 38.5338C292.029 38.5338 295.347 35.2169 295.347 31.7298C295.347 28.2427 292.029 24.9257 288.542 24.9257C286.926 24.9257 285.139 25.6912 283.863 27.052Z" stroke="#3CBAB1" stroke-width="0.266667" mask="url(#path-1-inside-1_12_252)"/>
<path fill-rule="evenodd" clip-rule="evenodd" d="M2.12651 2.12627L1.4462 2.77928C0.522278 3.66613 0 4.89136 0 6.17196V146.117C0 284.664 0 288.151 1.61615 290.107L1.82809 290.375C2.71557 291.496 4.06477 292.152 5.49454 292.159L170.548 292.907C174.587 292.925 177.772 289.509 177.772 285.47V285.47V285.47C177.772 281.733 174.823 278.581 171.085 278.59L18.3222 278.957C15.721 278.962 13.6097 276.855 13.6097 274.254V68.1931C13.6097 65.5957 15.7155 63.4901 18.3132 63.4901H308.319C310.916 63.4901 313.022 65.5957 313.022 68.1931V175.352C313.022 178.243 315.006 180.756 317.769 181.609V181.609C322.075 182.938 326.632 179.845 326.632 175.339V6.17195C326.632 4.89135 326.11 3.66613 325.186 2.77928L324.505 2.12627L323.852 1.44601C322.965 0.52221 321.74 0 320.459 0H6.17268C4.89194 0 3.66658 0.522212 2.77962 1.44602L2.12651 2.12627ZM313.022 45.1791C313.022 47.7764 310.916 49.882 308.319 49.882H18.3132C15.7155 49.882 13.6097 47.7764 13.6097 45.1791V18.311C13.6097 15.7137 15.7155 13.6081 18.3132 13.6081H308.319C310.916 13.6081 313.022 15.7137 313.022 18.311V45.1791Z" stroke="#3CBAB1" stroke-width="0.266667" mask="url(#path-1-inside-1_12_252)"/>
<path d="M286.069 249.697C280.115 249.697 277.138 242.383 281.391 238.215C282.666 236.855 284.453 236.089 286.069 236.089C289.556 236.089 292.874 239.406 292.874 242.893C292.874 246.38 289.556 249.697 286.069 249.697Z" stroke="#3CBAB1" stroke-width="0.266667" mask="url(#path-1-inside-1_12_252)"/>
<path d="M290.354 260.761C292.559 262.775 292.559 262.943 292.559 278.885V294.996L284.004 303.303C279.242 307.834 274.48 311.778 273.421 312.113C268.924 313.12 264.338 309.344 264.338 304.646C264.338 303.639 267.16 300.198 271.393 296.087L278.448 289.206V275.949C278.448 263.111 278.536 262.775 280.653 260.761C281.976 259.419 283.828 258.663 285.503 258.663C287.179 258.663 289.031 259.419 290.354 260.761Z" stroke="#3CBAB1" stroke-width="0.266667" mask="url(#path-1-inside-1_12_252)"/>
<path d="M242.797 292.965C236.842 292.965 233.865 285.65 238.118 281.483C239.394 280.122 241.18 279.356 242.797 279.356C246.284 279.356 249.601 282.673 249.601 286.16C249.601 289.648 246.284 292.965 242.797 292.965Z" stroke="#3CBAB1" stroke-width="0.266667" mask="url(#path-1-inside-1_12_252)"/>
<path d="M323.722 281.483C319.469 285.65 322.446 292.965 328.401 292.965C331.888 292.965 335.205 289.648 335.205 286.16C335.205 282.673 331.888 279.356 328.401 279.356C326.784 279.356 324.998 280.122 323.722 281.483Z" stroke="#3CBAB1" stroke-width="0.266667" mask="url(#path-1-inside-1_12_252)"/>
<path d="M286.069 336.232C280.115 336.232 277.138 328.918 281.391 324.75C282.666 323.389 284.453 322.624 286.069 322.624C289.556 322.624 292.874 325.941 292.874 329.428C292.874 332.915 289.556 336.232 286.069 336.232Z" stroke="#3CBAB1" stroke-width="0.266667" mask="url(#path-1-inside-1_12_252)"/>
<path fill-rule="evenodd" clip-rule="evenodd" d="M276.652 218.659C271.985 219.281 262.572 221.92 258.06 223.939C220.566 240.476 205.941 286.361 226.945 321.531C232.001 329.916 242.036 339.931 250.437 344.978C277.352 360.972 311.813 356.701 333.905 334.652C342.617 325.956 348.763 315.009 352.186 302.277C354.286 294.28 354.208 278.053 351.952 269.746C346.04 248.007 331.027 231.082 310.413 222.852C300.844 219.048 286.92 217.34 276.652 218.659ZM295.866 231.625C303.8 233.178 309.479 235.429 316.091 239.777C323.948 244.901 331.338 253.131 335.305 261.05C340.05 270.678 341.217 275.802 341.139 287.215C341.062 295.522 340.75 297.851 339.039 303.131C336.083 312.059 332.038 318.503 324.881 325.646C317.725 332.789 311.268 336.826 302.322 339.776C297.033 341.484 294.699 341.795 286.376 341.872C274.941 341.95 269.806 340.785 260.161 336.049C248.881 330.459 237.835 318.348 233.479 306.78C227.489 290.941 228.889 272.696 237.135 258.488C240.791 252.277 250.981 241.951 257.049 238.38C268.873 231.47 282.564 229.063 295.866 231.625Z" stroke="#3CBAB1" stroke-width="0.266667" mask="url(#path-1-inside-1_12_252)"/>
<path fill-rule="evenodd" clip-rule="evenodd" d="M380 285.47C380 337.678 337.888 380 285.941 380C233.993 380 191.881 337.678 191.881 285.47C191.881 233.263 233.993 190.941 285.941 190.941C337.888 190.941 380 233.263 380 285.47ZM305.792 206.673C321.358 210.84 331.736 216.879 343.219 228.361C354.787 240.013 360.741 250.389 364.994 266.208C367.546 275.564 367.801 294.87 365.505 303.97C361.507 319.79 354.872 331.527 343.219 343.179C331.565 354.831 319.827 361.465 304.006 365.462C294.904 367.758 275.596 367.503 266.239 364.952C250.418 360.699 240.04 354.746 228.387 343.179C216.819 331.612 210.865 321.321 206.527 305.331C204.06 296.061 203.805 276.924 206.101 267.569C209.844 252.43 216.989 239.757 227.962 228.701C240.806 215.688 256.032 207.778 273.469 204.972C281.635 203.696 297.967 204.546 305.792 206.673Z" stroke="#3CBAB1" stroke-width="0.266667" mask="url(#path-1-inside-1_12_252)"/>
<path d="M248.136 134.766L248.137 134.769C248.513 136.087 248.812 137.282 248.996 138.166C249.079 138.564 249.135 138.884 249.167 139.119C248.975 139.269 248.713 139.472 248.387 139.725C247.673 140.276 246.66 141.057 245.421 142.009C244.842 142.455 244.213 142.939 243.543 143.454C241.351 145.14 238.716 147.165 235.914 149.325C235.914 149.326 235.913 149.326 235.912 149.327L223.218 159.047L221.332 157.448C221.329 157.445 221.327 157.443 221.325 157.441C211.873 149.108 197.899 149.194 188.459 157.444L188.454 157.449L185.654 159.931L170.585 150.714L170.584 150.713L155.482 141.504L155.818 137.008L155.818 137.005C157.489 113.619 129.261 101.531 112.944 118.482C108.41 123.175 106.339 128.383 106.339 135.409C106.339 139.858 106.813 142.29 108.179 145.344L108.183 145.353L108.187 145.361L109.641 148.46L91.0077 167.093L91.0063 167.095L72.5611 185.614L70.8331 183.994C70.8325 183.993 70.832 183.993 70.8315 183.992C66.4316 179.833 60.3839 177.623 53.8361 177.623C51.391 177.623 49.7254 177.697 48.0957 178.089C46.4657 178.481 44.9274 179.177 42.7089 180.325C21.3789 191.192 26.1661 223.281 49.7961 226.941L49.7981 226.941C61.2072 228.684 70.9878 223.583 76.4387 213.24C77.3735 211.525 77.9421 210.239 78.2552 208.559C78.5606 206.92 78.6151 204.943 78.6151 201.869V195.271L117.44 156.446L120.832 158.174L120.832 158.174L120.842 158.179C129.404 162.42 140.978 160.406 148.344 153.436L148.345 153.435L150.761 151.143L165.424 160.116L165.426 160.117L180.197 169.202L180.267 175.422C180.267 175.424 180.267 175.426 180.267 175.428C180.267 178.396 180.342 180.348 180.666 182.041C180.996 183.761 181.574 185.169 182.503 187.065L182.504 187.067C185.045 192.228 189.634 196.659 194.871 199.041C197.793 200.42 201.537 201.022 205.251 200.934C208.971 200.846 212.761 200.062 215.778 198.574C224.813 194.134 230.384 184.771 229.747 174.976L229.746 174.967L229.746 174.958C229.63 173.577 229.496 172.214 229.371 171.117C229.277 170.295 229.184 169.575 229.102 169.113C229.205 168.975 229.374 168.778 229.623 168.517C230.179 167.934 231.042 167.128 232.206 166.116C234.528 164.096 237.978 161.309 242.39 157.924L242.393 157.922L255.876 147.517L259.478 149.678C259.479 149.678 259.48 149.679 259.48 149.679C269.175 155.558 281.645 154.045 289.742 145.948L289.748 145.942C294.424 141.187 296.5 136.379 296.817 129.29C296.969 126.728 296.977 125.012 296.699 123.406C296.419 121.794 295.862 120.347 294.982 118.32L294.979 118.311L294.975 118.302C292.44 112.759 287.542 107.771 282.043 105.379C280.002 104.481 277.047 103.857 274.165 103.576C271.294 103.295 268.336 103.34 266.299 103.88C252.743 107.37 244.397 121.48 248.136 134.766ZM278.664 115.718L278.674 115.723C287.776 120.345 289.159 132.135 281.364 139.002C276.114 143.609 269.741 143.526 264.986 140.554C260.221 137.576 257.057 131.676 258.388 124.545C258.644 123.202 259.784 121.23 261.37 119.354C262.947 117.49 264.791 115.927 266.262 115.292L266.272 115.288C267.794 114.611 270.102 114.29 272.49 114.373C274.877 114.456 277.17 114.936 278.664 115.718ZM138.927 123.5L138.932 123.504C147.28 129.283 147.27 141.541 139.01 147.238L139.004 147.242L138.998 147.246C137.443 148.352 135.338 149.107 133.106 149.414C130.877 149.721 128.598 149.57 126.712 148.942C125.082 148.387 123.214 147.213 121.586 145.777C119.949 144.333 118.661 142.719 118.094 141.352L118.091 141.344L118.087 141.335C117.517 140.027 117.179 137.875 117.142 135.621C117.104 133.369 117.371 131.212 117.875 129.9L117.875 129.9L117.879 129.89C119.309 126.052 122.816 123.226 126.912 121.98C131.008 120.735 135.534 121.121 138.927 123.5ZM208.682 162.443L208.683 162.443C210.835 162.998 212.82 164.183 214.938 166.226C223.906 175.277 217.716 190.275 204.894 190.275C203.025 190.275 200.923 189.813 199.019 189.043C197.107 188.268 195.487 187.22 194.519 186.119C187.495 178.092 191.066 165.197 200.97 162.438L200.979 162.436L200.987 162.433C202.794 161.895 203.689 161.674 204.618 161.674C205.563 161.674 206.599 161.903 208.682 162.443ZM59.4815 189.347C60.9465 190.098 62.4908 191.221 63.8273 192.457C65.1689 193.697 66.2427 194.997 66.8197 196.08C71.4189 205.152 64.1577 216.792 53.8433 216.721C49.802 216.686 45.906 214.569 43.1888 211.427C40.4703 208.284 39.0352 204.238 39.7285 200.452C40.6644 195.564 44.1269 191.054 48.2945 189.217C49.6747 188.612 51.801 188.293 53.9854 188.321C56.1734 188.349 58.2269 188.721 59.4815 189.347Z" fill="#3CBAB1" stroke="#3CBAB1" stroke-width="2"/>
</svg>