<svg width="404" height="404" viewBox="0 0 404 404" fill="none" xmlns="http://www.w3.org/2000/svg">
<mask id="path-1-inside-1_12_252" fill="white">
<path d="M258.384 28.7606C253.862 33.1912 257.027 40.9675 263.358 40.9675C267.065 40.9675 270.592 37.4411 270.592 33.7338C270.592 30.0265 267.065 26.5 263.358 26.5C261.639 26.5 259.74 27.3138 258.384 28.7606Z"/>
<path d="M285.062 40.9675C278.731 40.9675 275.566 33.1912 280.088 28.7606C281.444 27.3138 283.343 26.5 285.062 26.5C288.769 26.5 292.296 30.0265 292.296 33.7338C292.296 37.4411 288.769 40.9675 285.062 40.9675Z"/>
<path d="M301.792 28.7606C297.27 33.1912 300.435 40.9675 306.765 40.9675C310.473 40.9675 314 37.4411 314 33.7338C314 30.0265 310.473 26.5 306.765 26.5C305.047 26.5 303.148 27.3138 301.792 28.7606Z"/>
<path fill-rule="evenodd" clip-rule="evenodd" d="M2.26082 2.26056L1.53754 2.95481C0.555264 3.89768 0 5.20029 0 6.56177V155.345C0 302.643 0 306.35 1.71822 308.43L1.94355 308.714C2.88708 309.906 4.32149 310.604 5.84157 310.611L181.32 311.406C185.614 311.426 189 307.794 189 303.5V303.5V303.5C189 299.527 185.864 296.175 181.891 296.185L19.4794 296.575C16.7139 296.58 14.4692 294.34 14.4692 291.575V72.5C14.4692 69.7386 16.7081 67.5 19.4698 67.5H327.791C330.553 67.5 332.792 69.7386 332.792 72.5V186.427C332.792 189.501 334.901 192.172 337.839 193.079V193.079C342.416 194.492 347.261 191.204 347.261 186.413V6.56175C347.261 5.20028 346.706 3.89768 345.724 2.95482L345 2.26056L344.306 1.53734C343.363 0.555192 342.06 0 340.699 0H6.56254C5.2009 0 3.89815 0.555194 2.95518 1.53735L2.26082 2.26056ZM332.792 48.0325C332.792 50.7939 330.553 53.0325 327.791 53.0325H19.4698C16.708 53.0325 14.4692 50.7939 14.4692 48.0325V19.4675C14.4692 16.7061 16.7081 14.4675 19.4698 14.4675H327.791C330.553 14.4675 332.792 16.7061 332.792 19.4675V48.0325Z"/>
<path d="M304.136 265.468C297.806 265.468 294.641 257.691 299.163 253.261C300.519 251.814 302.418 251 304.136 251C307.844 251 311.371 254.526 311.371 258.234C311.371 261.941 307.844 265.468 304.136 265.468Z"/>
<path d="M308.692 277.23C311.036 279.371 311.036 279.55 311.036 296.499V313.627L301.941 322.459C296.878 327.276 291.815 331.469 290.69 331.826C285.908 332.896 281.033 328.882 281.033 323.886C281.033 322.816 284.033 319.158 288.534 314.787L296.034 307.472V293.377C296.034 279.728 296.128 279.371 298.378 277.23C299.785 275.803 301.754 275 303.535 275C305.317 275 307.286 275.803 308.692 277.23Z"/>
<path d="M258.131 311.468C251.801 311.468 248.636 303.691 253.157 299.261C254.514 297.814 256.413 297 258.131 297C261.839 297 265.366 300.526 265.366 304.234C265.366 307.941 261.839 311.468 258.131 311.468Z"/>
<path d="M344.168 299.261C339.646 303.691 342.811 311.468 349.142 311.468C352.849 311.468 356.376 307.941 356.376 304.234C356.376 300.526 352.849 297 349.142 297C347.423 297 345.524 297.814 344.168 299.261Z"/>
<path d="M304.136 357.468C297.806 357.468 294.641 349.691 299.163 345.261C300.519 343.814 302.418 343 304.136 343C307.844 343 311.371 346.526 311.371 350.234C311.371 353.941 307.844 357.468 304.136 357.468Z"/>
<path fill-rule="evenodd" clip-rule="evenodd" d="M294.125 232.47C289.163 233.13 279.156 235.936 274.359 238.082C234.496 255.664 218.948 304.447 241.278 341.838C246.654 350.753 257.322 361.401 266.254 366.766C294.869 383.77 331.506 379.23 354.994 355.788C364.256 346.543 370.79 334.905 374.429 321.368C376.662 312.866 376.579 295.614 374.181 286.782C367.895 263.671 351.934 245.676 330.018 236.927C319.845 232.882 305.041 231.066 294.125 232.47ZM314.552 246.254C322.988 247.905 329.025 250.299 336.055 254.921C344.408 260.369 352.265 269.118 356.482 277.538C361.527 287.773 362.768 293.221 362.685 305.354C362.602 314.187 362.272 316.663 360.452 322.276C357.309 331.768 353.009 338.619 345.4 346.213C337.792 353.807 330.927 358.099 321.417 361.236C315.793 363.052 313.312 363.382 304.462 363.464C292.305 363.547 286.847 362.309 276.592 357.274C264.6 351.331 252.856 338.454 248.225 326.155C241.857 309.317 243.345 289.919 252.112 274.814C255.999 268.21 266.833 257.232 273.284 253.435C285.854 246.089 300.41 243.53 314.552 246.254Z"/>
<path fill-rule="evenodd" clip-rule="evenodd" d="M404 303.5C404 359.005 359.228 404 304 404C248.772 404 204 359.005 204 303.5C204 247.995 248.772 203 304 203C359.228 203 404 247.995 404 303.5ZM325.105 219.726C341.654 224.156 352.687 230.576 364.896 242.783C377.194 255.171 383.525 266.203 388.046 283.021C390.759 292.968 391.031 313.493 388.589 323.169C384.339 339.987 377.285 352.465 364.896 364.853C352.506 377.241 340.027 384.294 323.206 388.544C313.53 390.985 293.002 390.714 283.054 388.001C266.234 383.48 255.201 377.151 242.812 364.853C230.513 352.556 224.182 341.615 219.57 324.615C216.948 314.759 216.677 294.414 219.118 284.468C223.097 268.373 230.694 254.9 242.359 243.145C256.015 229.31 272.202 220.901 290.741 217.917C299.422 216.561 316.785 217.465 325.105 219.726Z"/>
</mask>
<path d="M258.384 28.7606C253.862 33.1912 257.027 40.9675 263.358 40.9675C267.065 40.9675 270.592 37.4411 270.592 33.7338C270.592 30.0265 267.065 26.5 263.358 26.5C261.639 26.5 259.74 27.3138 258.384 28.7606Z" fill="#3CBAB1"/>
<path d="M285.062 40.9675C278.731 40.9675 275.566 33.1912 280.088 28.7606C281.444 27.3138 283.343 26.5 285.062 26.5C288.769 26.5 292.296 30.0265 292.296 33.7338C292.296 37.4411 288.769 40.9675 285.062 40.9675Z" fill="#3CBAB1"/>
<path d="M301.792 28.7606C297.27 33.1912 300.435 40.9675 306.765 40.9675C310.473 40.9675 314 37.4411 314 33.7338C314 30.0265 310.473 26.5 306.765 26.5C305.047 26.5 303.148 27.3138 301.792 28.7606Z" fill="#3CBAB1"/>
<path fill-rule="evenodd" clip-rule="evenodd" d="M2.26082 2.26056L1.53754 2.95481C0.555264 3.89768 0 5.20029 0 6.56177V155.345C0 302.643 0 306.35 1.71822 308.43L1.94355 308.714C2.88708 309.906 4.32149 310.604 5.84157 310.611L181.32 311.406C185.614 311.426 189 307.794 189 303.5V303.5V303.5C189 299.527 185.864 296.175 181.891 296.185L19.4794 296.575C16.7139 296.58 14.4692 294.34 14.4692 291.575V72.5C14.4692 69.7386 16.7081 67.5 19.4698 67.5H327.791C330.553 67.5 332.792 69.7386 332.792 72.5V186.427C332.792 189.501 334.901 192.172 337.839 193.079V193.079C342.416 194.492 347.261 191.204 347.261 186.413V6.56175C347.261 5.20028 346.706 3.89768 345.724 2.95482L345 2.26056L344.306 1.53734C343.363 0.555192 342.06 0 340.699 0H6.56254C5.2009 0 3.89815 0.555194 2.95518 1.53735L2.26082 2.26056ZM332.792 48.0325C332.792 50.7939 330.553 53.0325 327.791 53.0325H19.4698C16.708 53.0325 14.4692 50.7939 14.4692 48.0325V19.4675C14.4692 16.7061 16.7081 14.4675 19.4698 14.4675H327.791C330.553 14.4675 332.792 16.7061 332.792 19.4675V48.0325Z" fill="#3CBAB1"/>
<path d="M304.136 265.468C297.806 265.468 294.641 257.691 299.163 253.261C300.519 251.814 302.418 251 304.136 251C307.844 251 311.371 254.526 311.371 258.234C311.371 261.941 307.844 265.468 304.136 265.468Z" fill="#3CBAB1"/>
<path d="M308.692 277.23C311.036 279.371 311.036 279.55 311.036 296.499V313.627L301.941 322.459C296.878 327.276 291.815 331.469 290.69 331.826C285.908 332.896 281.033 328.882 281.033 323.886C281.033 322.816 284.033 319.158 288.534 314.787L296.034 307.472V293.377C296.034 279.728 296.128 279.371 298.378 277.23C299.785 275.803 301.754 275 303.535 275C305.317 275 307.286 275.803 308.692 277.23Z" fill="#3CBAB1"/>
<path d="M258.131 311.468C251.801 311.468 248.636 303.691 253.157 299.261C254.514 297.814 256.413 297 258.131 297C261.839 297 265.366 300.526 265.366 304.234C265.366 307.941 261.839 311.468 258.131 311.468Z" fill="#3CBAB1"/>
<path d="M344.168 299.261C339.646 303.691 342.811 311.468 349.142 311.468C352.849 311.468 356.376 307.941 356.376 304.234C356.376 300.526 352.849 297 349.142 297C347.423 297 345.524 297.814 344.168 299.261Z" fill="#3CBAB1"/>
<path d="M304.136 357.468C297.806 357.468 294.641 349.691 299.163 345.261C300.519 343.814 302.418 343 304.136 343C307.844 343 311.371 346.526 311.371 350.234C311.371 353.941 307.844 357.468 304.136 357.468Z" fill="#3CBAB1"/>
<path fill-rule="evenodd" clip-rule="evenodd" d="M294.125 232.47C289.163 233.13 279.156 235.936 274.359 238.082C234.496 255.664 218.948 304.447 241.278 341.838C246.654 350.753 257.322 361.401 266.254 366.766C294.869 383.77 331.506 379.23 354.994 355.788C364.256 346.543 370.79 334.905 374.429 321.368C376.662 312.866 376.579 295.614 374.181 286.782C367.895 263.671 351.934 245.676 330.018 236.927C319.845 232.882 305.041 231.066 294.125 232.47ZM314.552 246.254C322.988 247.905 329.025 250.299 336.055 254.921C344.408 260.369 352.265 269.118 356.482 277.538C361.527 287.773 362.768 293.221 362.685 305.354C362.602 314.187 362.272 316.663 360.452 322.276C357.309 331.768 353.009 338.619 345.4 346.213C337.792 353.807 330.927 358.099 321.417 361.236C315.793 363.052 313.312 363.382 304.462 363.464C292.305 363.547 286.847 362.309 276.592 357.274C264.6 351.331 252.856 338.454 248.225 326.155C241.857 309.317 243.345 289.919 252.112 274.814C255.999 268.21 266.833 257.232 273.284 253.435C285.854 246.089 300.41 243.53 314.552 246.254Z" fill="#3CBAB1"/>
<path fill-rule="evenodd" clip-rule="evenodd" d="M404 303.5C404 359.005 359.228 404 304 404C248.772 404 204 359.005 204 303.5C204 247.995 248.772 203 304 203C359.228 203 404 247.995 404 303.5ZM325.105 219.726C341.654 224.156 352.687 230.576 364.896 242.783C377.194 255.171 383.525 266.203 388.046 283.021C390.759 292.968 391.031 313.493 388.589 323.169C384.339 339.987 377.285 352.465 364.896 364.853C352.506 377.241 340.027 384.294 323.206 388.544C313.53 390.985 293.002 390.714 283.054 388.001C266.234 383.48 255.201 377.151 242.812 364.853C230.513 352.556 224.182 341.615 219.57 324.615C216.948 314.759 216.677 294.414 219.118 284.468C223.097 268.373 230.694 254.9 242.359 243.145C256.015 229.31 272.202 220.901 290.741 217.917C299.422 216.561 316.785 217.465 325.105 219.726Z" fill="#3CBAB1"/>
<path d="M258.384 28.7606C253.862 33.1912 257.027 40.9675 263.358 40.9675C267.065 40.9675 270.592 37.4411 270.592 33.7338C270.592 30.0265 267.065 26.5 263.358 26.5C261.639 26.5 259.74 27.3138 258.384 28.7606Z" stroke="#3CBAB1" stroke-width="0.266667" mask="url(#path-1-inside-1_12_252)"/>
<path d="M285.062 40.9675C278.731 40.9675 275.566 33.1912 280.088 28.7606C281.444 27.3138 283.343 26.5 285.062 26.5C288.769 26.5 292.296 30.0265 292.296 33.7338C292.296 37.4411 288.769 40.9675 285.062 40.9675Z" stroke="#3CBAB1" stroke-width="0.266667" mask="url(#path-1-inside-1_12_252)"/>
<path d="M301.792 28.7606C297.27 33.1912 300.435 40.9675 306.765 40.9675C310.473 40.9675 314 37.4411 314 33.7338C314 30.0265 310.473 26.5 306.765 26.5C305.047 26.5 303.148 27.3138 301.792 28.7606Z" stroke="#3CBAB1" stroke-width="0.266667" mask="url(#path-1-inside-1_12_252)"/>
<path fill-rule="evenodd" clip-rule="evenodd" d="M2.26082 2.26056L1.53754 2.95481C0.555264 3.89768 0 5.20029 0 6.56177V155.345C0 302.643 0 306.35 1.71822 308.43L1.94355 308.714C2.88708 309.906 4.32149 310.604 5.84157 310.611L181.32 311.406C185.614 311.426 189 307.794 189 303.5V303.5V303.5C189 299.527 185.864 296.175 181.891 296.185L19.4794 296.575C16.7139 296.58 14.4692 294.34 14.4692 291.575V72.5C14.4692 69.7386 16.7081 67.5 19.4698 67.5H327.791C330.553 67.5 332.792 69.7386 332.792 72.5V186.427C332.792 189.501 334.901 192.172 337.839 193.079V193.079C342.416 194.492 347.261 191.204 347.261 186.413V6.56175C347.261 5.20028 346.706 3.89768 345.724 2.95482L345 2.26056L344.306 1.53734C343.363 0.555192 342.06 0 340.699 0H6.56254C5.2009 0 3.89815 0.555194 2.95518 1.53735L2.26082 2.26056ZM332.792 48.0325C332.792 50.7939 330.553 53.0325 327.791 53.0325H19.4698C16.708 53.0325 14.4692 50.7939 14.4692 48.0325V19.4675C14.4692 16.7061 16.7081 14.4675 19.4698 14.4675H327.791C330.553 14.4675 332.792 16.7061 332.792 19.4675V48.0325Z" stroke="#3CBAB1" stroke-width="0.266667" mask="url(#path-1-inside-1_12_252)"/>
<path d="M304.136 265.468C297.806 265.468 294.641 257.691 299.163 253.261C300.519 251.814 302.418 251 304.136 251C307.844 251 311.371 254.526 311.371 258.234C311.371 261.941 307.844 265.468 304.136 265.468Z" stroke="#3CBAB1" stroke-width="0.266667" mask="url(#path-1-inside-1_12_252)"/>
<path d="M308.692 277.23C311.036 279.371 311.036 279.55 311.036 296.499V313.627L301.941 322.459C296.878 327.276 291.815 331.469 290.69 331.826C285.908 332.896 281.033 328.882 281.033 323.886C281.033 322.816 284.033 319.158 288.534 314.787L296.034 307.472V293.377C296.034 279.728 296.128 279.371 298.378 277.23C299.785 275.803 301.754 275 303.535 275C305.317 275 307.286 275.803 308.692 277.23Z" stroke="#3CBAB1" stroke-width="0.266667" mask="url(#path-1-inside-1_12_252)"/>
<path d="M258.131 311.468C251.801 311.468 248.636 303.691 253.157 299.261C254.514 297.814 256.413 297 258.131 297C261.839 297 265.366 300.526 265.366 304.234C265.366 307.941 261.839 311.468 258.131 311.468Z" stroke="#3CBAB1" stroke-width="0.266667" mask="url(#path-1-inside-1_12_252)"/>
<path d="M344.168 299.261C339.646 303.691 342.811 311.468 349.142 311.468C352.849 311.468 356.376 307.941 356.376 304.234C356.376 300.526 352.849 297 349.142 297C347.423 297 345.524 297.814 344.168 299.261Z" stroke="#3CBAB1" stroke-width="0.266667" mask="url(#path-1-inside-1_12_252)"/>
<path d="M304.136 357.468C297.806 357.468 294.641 349.691 299.163 345.261C300.519 343.814 302.418 343 304.136 343C307.844 343 311.371 346.526 311.371 350.234C311.371 353.941 307.844 357.468 304.136 357.468Z" stroke="#3CBAB1" stroke-width="0.266667" mask="url(#path-1-inside-1_12_252)"/>
<path fill-rule="evenodd" clip-rule="evenodd" d="M294.125 232.47C289.163 233.13 279.156 235.936 274.359 238.082C234.496 255.664 218.948 304.447 241.278 341.838C246.654 350.753 257.322 361.401 266.254 366.766C294.869 383.77 331.506 379.23 354.994 355.788C364.256 346.543 370.79 334.905 374.429 321.368C376.662 312.866 376.579 295.614 374.181 286.782C367.895 263.671 351.934 245.676 330.018 236.927C319.845 232.882 305.041 231.066 294.125 232.47ZM314.552 246.254C322.988 247.905 329.025 250.299 336.055 254.921C344.408 260.369 352.265 269.118 356.482 277.538C361.527 287.773 362.768 293.221 362.685 305.354C362.602 314.187 362.272 316.663 360.452 322.276C357.309 331.768 353.009 338.619 345.4 346.213C337.792 353.807 330.927 358.099 321.417 361.236C315.793 363.052 313.312 363.382 304.462 363.464C292.305 363.547 286.847 362.309 276.592 357.274C264.6 351.331 252.856 338.454 248.225 326.155C241.857 309.317 243.345 289.919 252.112 274.814C255.999 268.21 266.833 257.232 273.284 253.435C285.854 246.089 300.41 243.53 314.552 246.254Z" stroke="#3CBAB1" stroke-width="0.266667" mask="url(#path-1-inside-1_12_252)"/>
<path fill-rule="evenodd" clip-rule="evenodd" d="M404 303.5C404 359.005 359.228 404 304 404C248.772 404 204 359.005 204 303.5C204 247.995 248.772 203 304 203C359.228 203 404 247.995 404 303.5ZM325.105 219.726C341.654 224.156 352.687 230.576 364.896 242.783C377.194 255.171 383.525 266.203 388.046 283.021C390.759 292.968 391.031 313.493 388.589 323.169C384.339 339.987 377.285 352.465 364.896 364.853C352.506 377.241 340.027 384.294 323.206 388.544C313.53 390.985 293.002 390.714 283.054 388.001C266.234 383.48 255.201 377.151 242.812 364.853C230.513 352.556 224.182 341.615 219.57 324.615C216.948 314.759 216.677 294.414 219.118 284.468C223.097 268.373 230.694 254.9 242.359 243.145C256.015 229.31 272.202 220.901 290.741 217.917C299.422 216.561 316.785 217.465 325.105 219.726Z" stroke="#3CBAB1" stroke-width="0.266667" mask="url(#path-1-inside-1_12_252)"/>
<path d="M263.869 143.264L263.868 143.26C259.903 129.171 268.755 114.203 283.133 110.502C285.289 109.931 288.424 109.882 291.475 110.18C294.535 110.479 297.671 111.142 299.832 112.093C299.832 112.093 299.833 112.093 299.833 112.093L299.43 113.009C305.021 115.439 310.045 120.544 312.638 126.216L263.869 143.264ZM263.869 143.264C264.27 144.665 264.587 145.937 264.784 146.88C264.876 147.323 264.938 147.678 264.971 147.933C264.765 148.094 264.476 148.318 264.113 148.599C263.354 149.186 262.277 150.016 260.96 151.029C260.346 151.501 259.68 152.013 258.97 152.559C256.638 154.352 253.835 156.508 250.853 158.806C250.852 158.807 250.851 158.807 250.851 158.808L237.313 169.174L235.269 167.439C235.266 167.437 235.264 167.435 235.262 167.433C225.237 158.594 210.416 158.685 200.404 167.436L200.398 167.441L197.387 170.11L181.326 160.286L181.325 160.286L165.236 150.475L165.596 145.656L165.596 145.653C167.368 120.853 137.433 108.029 120.124 126.008C115.315 130.985 113.118 136.506 113.118 143.961C113.118 148.684 113.621 151.261 115.069 154.498L115.073 154.507L115.077 154.515L116.642 157.85L96.8002 177.691L96.7988 177.693L77.1454 197.424L75.2633 195.66C75.2628 195.66 75.2623 195.659 75.2617 195.659C70.5972 191.249 64.1836 188.904 57.2363 188.904C54.6371 188.904 52.8729 188.983 51.1481 189.398C49.4233 189.813 47.7937 190.55 45.4362 191.77C22.8102 203.295 27.8908 237.33 52.9508 241.211L52.9528 241.212C65.0551 243.061 75.4278 237.651 81.2108 226.677C82.2034 224.857 82.8044 223.496 83.1356 221.719C83.459 219.984 83.5171 217.887 83.5171 214.618V207.578L124.845 166.25L128.492 168.108L128.492 168.108L128.502 168.113C137.58 172.609 149.856 170.474 157.669 163.081L157.67 163.08L160.274 160.61L175.905 170.175L175.907 170.176L191.641 179.853L191.716 186.501C191.716 186.503 191.716 186.505 191.716 186.507C191.716 189.663 191.795 191.733 192.139 193.526C192.488 195.347 193.1 196.838 194.086 198.852L194.087 198.854C196.782 204.328 201.651 209.029 207.205 211.555M263.869 143.264L207.205 211.555M243.196 186.096C243.845 196.063 238.173 205.624 228.935 210.162C222.858 213.16 213.459 213.403 207.625 210.648C202.277 208.217 197.577 203.679 194.984 198.412L243.196 186.096ZM243.196 186.096C242.953 183.179 242.629 180.343 242.467 179.695L243.196 186.096ZM207.205 211.555C210.3 213.015 214.271 213.655 218.213 213.562C222.161 213.468 226.18 212.636 229.378 211.058C238.962 206.349 244.87 196.418 244.194 186.031L244.194 186.022L244.193 186.013C244.071 184.546 243.928 183.097 243.795 181.931C243.693 181.04 243.592 180.264 243.505 179.779C243.615 179.627 243.801 179.408 244.08 179.116C244.673 178.494 245.593 177.637 246.83 176.56C249.3 174.412 252.969 171.448 257.661 167.848L257.663 167.846L272.032 156.757L275.899 159.077C275.9 159.078 275.9 159.078 275.901 159.078C286.183 165.314 299.409 163.709 307.997 155.121L308.003 155.115C312.963 150.071 315.164 144.974 315.5 137.45L207.205 211.555ZM67.9013 204.565C66.4771 203.248 64.8305 202.051 63.2668 201.249C61.9208 200.578 59.7264 200.181 57.3958 200.152C55.0688 200.122 52.7982 200.461 51.3193 201.11L67.9013 204.565ZM67.9013 204.565C69.3309 205.887 70.4781 207.275 71.096 208.435M67.9013 204.565L71.096 208.435M71.096 208.435C76.0079 218.123 68.2558 230.548 57.2434 230.472C52.9254 230.434 48.767 228.173 45.8687 224.822C42.9691 221.469 41.4341 217.149 42.1756 213.101C43.174 207.885 46.8676 203.072 51.3192 201.11L71.096 208.435ZM296.293 122.97L296.303 122.975C306.022 127.91 307.496 140.501 299.174 147.83C293.571 152.746 286.766 152.658 281.688 149.484C276.601 146.305 273.225 140.007 274.645 132.399C274.92 130.955 276.141 128.849 277.83 126.852C279.509 124.866 281.476 123.197 283.054 122.516L283.063 122.511C284.694 121.786 287.158 121.445 289.702 121.533C292.245 121.622 294.693 122.134 296.293 122.97ZM147.738 131.249L147.743 131.252C156.654 137.421 156.643 150.507 147.825 156.589L147.819 156.593L147.814 156.597C146.151 157.78 143.902 158.585 141.521 158.913C139.143 159.24 136.71 159.08 134.694 158.409C132.951 157.815 130.958 156.562 129.223 155.031C127.479 153.493 126.102 151.769 125.495 150.304L125.491 150.295L125.488 150.287C124.876 148.884 124.516 146.587 124.477 144.188C124.437 141.79 124.72 139.487 125.261 138.081L125.261 138.081L125.265 138.071C126.794 133.969 130.539 130.952 134.909 129.624C139.278 128.296 144.111 128.706 147.738 131.249ZM221.878 172.641L221.879 172.641C224.18 173.235 226.3 174.502 228.557 176.679C238.132 186.342 231.523 202.355 217.834 202.355C215.838 202.355 213.595 201.862 211.565 201.041C209.526 200.215 207.795 199.096 206.757 197.916C199.261 189.35 203.068 175.583 213.646 172.636L213.655 172.634L213.663 172.631C215.583 172.06 216.543 171.822 217.541 171.822C218.555 171.822 219.665 172.067 221.878 172.641Z" fill="#3CBAB1" stroke="#3CBAB1" stroke-width="2"/>
</svg>