<svg width="405" height="301" viewBox="0 0 405 301" fill="none" xmlns="http://www.w3.org/2000/svg">
<path fill-rule="evenodd" clip-rule="evenodd" d="M88.3713 6.77893C89.5964 4.90042 91.965 2.77692 94.0885 1.71515L97.1851 0.202864C97.4584 0.0693808 97.7586 0 98.0628 0H245.431C387.543 0 393.424 0.081665 396.609 1.55179C400.448 3.34863 403.143 6.37057 404.368 10.5359C404.94 12.4961 405.103 46.7992 404.94 118.019C404.926 124.76 404.913 131.077 404.901 136.997V137C404.74 218.8 404.728 224.846 401.7 227.81C401.459 228.047 401.198 228.264 400.916 228.498C400.644 228.724 400.352 228.967 400.04 229.259C399.949 229.343 399.861 229.426 399.774 229.507L399.772 229.509L399.767 229.514C399.259 229.989 398.81 230.41 398.323 230.781C394.642 233.589 388.819 233.589 338.944 233.588L279.325 233.588V275.242L282.721 275.238C303.63 275.238 307.469 275.728 308.939 278.505C310.245 281.037 309.837 284.958 308.122 286.673C308.015 286.779 307.934 286.88 307.858 286.975C306.756 288.344 306.551 288.599 245.431 288.309C235.164 288.261 226.55 288.228 219.316 288.2C183.673 288.062 181.54 288.053 180.365 286.988C180.291 286.92 180.22 286.848 180.144 286.772L180.139 286.767L180.136 286.763L180.097 286.724L180.05 286.676C178.334 284.961 177.926 281.04 179.233 278.509C180.703 275.813 184.623 275.242 203 275.242H206.635V233.588H181.434C177.825 233.588 174.9 230.662 174.9 227.054V227.054C174.9 223.445 177.825 220.52 181.434 220.52H275.487C363.531 220.52 390.32 220.275 391.055 219.54C392.362 218.233 392.526 17.0699 391.219 14.6197C390.32 13.0678 387.87 13.0678 245.104 13.0678C188.508 13.0678 139.088 13.1908 115 13.3788V13.35H88.3447C87.1727 13.35 86.2262 12.3407 86.4437 11.189C86.7743 9.43889 87.3314 8.33878 88.3713 6.77893ZM219.703 275.242H266.257V233.588H219.703V275.242Z" fill="#3CBAB1"/>
<path d="M62.4806 50.2295C60.0304 52.5981 59.8671 56.2734 61.9906 58.887C63.5384 60.8421 63.8674 60.8471 79.8355 61.0903L96.3754 61.3372L98.4172 59.2953C101.112 56.6001 101.194 52.4347 98.5806 49.9845C96.7838 48.2693 95.967 48.1877 80.5306 48.1877C64.5225 48.1877 64.4408 48.1877 62.4806 50.2295Z" fill="#3CBAB1"/>
<path fill-rule="evenodd" clip-rule="evenodd" d="M58 26.1357H49.5762C16.1715 26.1357 13.2312 26.299 10.2093 27.6875C6.20723 29.566 2.94027 32.9146 1.30678 36.9167C0.163348 39.6119 0 53.6599 0 163.511C0 281.939 0.0816741 287.248 1.55181 290.433C3.34864 294.435 7.92238 298.355 12.1694 299.662C16.5798 300.969 144.318 300.969 148.728 299.662C152.976 298.355 157.549 294.435 159.346 290.433C160.735 287.411 160.898 284.552 160.898 260.295V233.588H160.9V220.52H160.898L160.9 220.329V177.233H160.898L160.9 176.969V165H160.995L161.061 156.651V156.651C161.077 155.319 159.572 154.533 158.488 155.308L149.583 161.676C148.265 162.618 147.486 164.141 147.492 165.761L147.667 215.211C147.83 278.835 147.748 284.634 146.523 286.023C145.216 287.411 142.113 287.493 80.3673 287.493C22.6237 287.493 15.5181 287.329 14.3746 286.186C13.3129 285.124 13.0679 282.429 13.0679 269.034V253.19H107.891L109.852 251.148C113.119 247.962 112.465 243.307 108.545 241.347C106.585 240.285 98.989 240.122 59.6221 240.122H13.0679V83.3075H147.83V109.544C147.83 110.765 149.211 111.475 150.204 110.764L160.504 103.384C160.901 103.099 161.135 102.639 161.13 102.15L160.49 36.9167L158.039 33.4047C156.651 31.4445 154.037 29.1576 151.914 28.0959C148.324 26.2196 147.668 26.2174 123.658 26.136L123.573 26.1357H115V26.15H58V26.1357ZM147.83 55.7017C147.83 45.4924 147.503 40.837 146.85 40.1836C145.462 38.7952 15.4364 38.7952 14.0479 40.1836C13.3945 40.837 13.0679 45.4924 13.0679 55.7017V70.2397H147.83V55.7017Z" fill="#3CBAB1"/>
<path d="M355.201 190.301L181.609 190.666C177.906 190.674 174.9 187.674 174.9 183.971V183.971C174.9 180.268 177.906 177.269 181.609 177.276L354.629 177.641L356.589 179.928C358.957 182.705 359.121 185.318 356.834 188.177L355.201 190.301Z" fill="#3CBAB1"/>
<path fill-rule="evenodd" clip-rule="evenodd" d="M166.67 132.247L161.306 136.069L161.306 136.083L125.024 162.026L125.025 162.028L121.694 164.41V168.33C121.694 177.314 115.895 185.89 107.565 189.075C102.909 190.791 94.0885 190.464 90.0865 188.34C86.2478 186.38 81.7557 181.643 79.9589 177.723C76.6103 170.372 78.5704 159.754 84.3693 153.711C91.6383 146.033 103.073 144.971 112.138 150.934L115.242 152.976L117.447 151.342C118.039 150.948 120.057 149.507 122.86 147.507L122.862 147.505C125.865 145.361 129.769 142.575 133.782 139.744L137.087 137.381L137.088 137.383L147.83 129.698V129.686L161.306 120.032L161.306 120.061L176.768 108.954L184.642 103.312L184.635 103.301C187.899 100.955 190.961 98.7526 193.611 96.8474L193.614 96.8452L193.73 96.7614C198.792 93.1208 202.317 90.5857 202.797 90.2498C204.185 89.2697 204.185 88.943 202.96 84.6143C200.101 74.7318 204.757 64.4408 214.313 59.377C219.05 56.8451 228.524 56.9268 233.261 59.377C244.287 65.1759 248.616 78.0804 243.144 88.698L241.02 92.9451L252.455 109.117C254.69 112.311 256.823 115.35 258.662 117.97C261.994 122.72 264.361 126.092 264.624 126.513C265.114 127.493 265.686 127.493 267.564 126.758C268.871 126.186 271.485 125.615 273.445 125.451C275.405 125.288 277.283 124.88 277.692 124.471C278.018 124.063 286.104 109.933 295.497 93.1901L312.73 62.5623L310.198 59.7037C295.66 43.2056 311.096 17.9683 332.005 24.0938C337.314 25.564 343.031 30.3828 345.563 35.3649C352.179 48.2694 343.521 64.1141 328.575 66.5643L325.144 67.1361L307.503 98.4172C297.865 115.569 289.943 129.943 289.943 130.27C289.943 130.678 290.923 132.23 292.148 133.782C295.17 137.784 296.395 141.704 296.395 147.422C296.477 159.509 287.329 168.494 274.833 168.575C270.014 168.575 268.381 168.249 264.706 166.207C255.231 161.061 250.984 150.199 254.415 140.153L255.721 136.396L242.899 118.264L230.076 100.051H223.869C220.438 100.051 216.763 99.724 215.62 99.3973C213.741 98.8256 210.392 100.949 187.442 117.447L172.617 128.01L172.61 128L166.67 132.247ZM334.864 44.9207C334.864 41.8988 332.413 38.3051 329.555 37.08C325.308 35.3649 323.511 35.6916 319.999 39.0402C318.12 40.7553 317.712 41.8171 317.712 44.9207C317.712 47.9427 318.12 49.0861 319.999 50.8013C322.939 53.6599 325.798 54.3132 329.391 52.8431C332.413 51.5363 334.864 48.0243 334.864 44.9207ZM223.787 87.3912C232.689 87.3912 235.793 75.5485 227.871 71.4648C224.685 69.8313 222.317 69.913 219.213 71.7915C216.273 73.5883 214.476 77.9171 215.293 81.184C216.11 84.451 220.112 87.3912 223.787 87.3912ZM283.409 147.095C283.409 143.338 281.53 140.643 278.018 139.173C276.33 138.449 275.473 138.082 274.628 138.109C273.757 138.138 272.9 138.587 271.158 139.499C264.461 142.766 264.542 151.342 271.321 154.854C276.712 157.631 283.409 153.384 283.409 147.095ZM108.3 171.352C109.117 168.739 107.973 164.573 105.85 162.613C103.563 160.49 98.3356 159.591 95.967 160.98C90.8216 163.92 89.8415 170.78 93.8435 174.864C98.3356 179.275 106.34 177.314 108.3 171.352Z" fill="#3CBAB1"/>
<path d="M364.266 184.257C364.266 181.97 366.39 178.948 368.677 178.049C371.29 176.988 378.314 177.151 380.601 178.294C383.705 179.846 385.093 183.277 383.868 186.299C382.48 189.647 380.846 190.301 373.74 190.301C368.105 190.301 367.533 190.137 365.981 188.177C365.001 186.952 364.266 185.237 364.266 184.257Z" fill="#3CBAB1"/>
<path d="M121.286 251.148C118.509 248.452 118.672 245.431 121.694 242.409C124.145 240.04 124.39 239.958 130.76 240.285C136.477 240.53 137.539 240.775 138.928 242.49C140.969 245.022 140.888 248.943 138.683 251.311C137.131 252.945 136.151 253.19 130.107 253.19C123.9 253.19 123.083 253.026 121.286 251.148Z" fill="#3CBAB1"/>
<path d="M74.7318 260.704C70.2397 263.317 67.8711 268.871 69.2596 273.445C70.4847 277.528 73.67 280.714 77.672 281.857C81.7557 283.082 87.3912 281.122 89.9231 277.61C97.1105 267.483 85.5127 254.496 74.7318 260.704Z" fill="#3CBAB1"/>
</svg>
