<svg width="750" height="750" viewBox="0 0 750 750" fill="none" xmlns="http://www.w3.org/2000/svg">
<path fill-rule="evenodd" clip-rule="evenodd" d="M750 375C750 582.107 582.107 750 375 750C292.561 750 216.335 723.398 154.438 678.311L415.594 332.484L415.662 332.536L421.487 324.679L422.737 323.024C438.3 302.916 462.641 290 490 290C536.944 290 575 328.056 575 375C575 421.944 536.944 460 490 460C457.844 460 429.848 442.138 415.408 415.795L408.856 424.429L408.977 424.628L389.859 449.824C389.859 449.824 389.859 449.825 389.86 449.825C389.814 449.765 389.769 449.704 389.724 449.643L383.453 457.908C408.151 489.604 446.687 510 490 510C564.558 510 625 449.558 625 375C625 300.442 564.558 240 490 240C449.443 240 413.063 257.885 388.316 286.197L388.046 285.993L383.11 292.531C382.499 293.321 381.897 294.118 381.304 294.922L116.022 646.212C44.5338 577.929 0 481.665 0 375C0 167.893 167.893 0 375 0C582.107 0 750 167.893 750 375ZM176.477 482.679L170.396 490.694C131.211 467.07 105 424.104 105 375C105 300.442 165.442 240 240 240C275.887 240 308.499 254.007 332.671 276.832L326.589 284.848L308.292 308.961L302.169 317.031C286.647 300.392 264.532 290 240 290C193.056 290 155 328.056 155 375C155 407.841 173.63 436.341 200.898 450.495L194.775 458.565L176.477 482.679Z" fill="#3CBAB1"/>
</svg>
