<svg width="405" height="405" viewBox="0 0 405 405" fill="none" xmlns="http://www.w3.org/2000/svg">
<rect width="405" height="405" rx="10" fill="#15191E"/>
<path d="M84 156.241C84 151.666 118.246 260.157 130.369 286.81C132.11 290.636 134.957 290.029 136.395 286.079L137.105 284.131C138.543 280.181 141.587 275.693 142.885 271.695C147.797 256.565 153 217.642 153 221.853V362.045C153 367.259 148.523 371.486 143 371.486H94C88.4771 371.486 84 367.259 84 362.045V156.241Z" fill="#252A34"/>
<path d="M252 292.657C252 287.443 282.477 168.986 288 168.986L297.5 189.755C303.023 189.755 321 264.314 321 269.528V362.045C321 367.259 316.523 371.486 311 371.486H262C256.477 371.486 252 367.259 252 362.045V292.657Z" fill="#252A34"/>
<path d="M0 260.559C0 256.455 19.8182 257.935 30.9455 258.751C34.9248 259.043 38.5245 256.771 40.1066 253.109L55.8934 216.559C57.4755 212.896 60.8361 209.218 62.3237 205.516C66.1266 196.052 69 176.825 69 180.787V362.045C69 367.259 64.5229 371.486 59 371.486H10C4.47715 371.486 0 367.259 0 362.045V260.559Z" fill="#252A34"/>
<path d="M336 251.591C336 246.377 352.977 248.287 358.5 248.287H395C400.523 248.287 405 243.073 405 248.287V362.045C405 367.259 400.523 371.486 395 371.486H346C340.477 371.486 336 367.259 336 362.045V251.591Z" fill="#252A34"/>
<path d="M168 193.059C168 189.215 174.785 204.644 180.562 213.012C183.123 216.72 186.825 215.063 188.015 210.717L206.985 141.416C208.175 137.07 210.725 136.583 211.92 140.928C219.978 170.223 237 283.4 237 287.937V362.045C237 367.259 232.523 371.486 227 371.486H178C172.477 371.486 168 367.259 168 362.045V193.059Z" fill="#252A34"/>
<rect y="385.647" width="405" height="18.8811" rx="9.44056" fill="#3CBAB1"/>
<path d="M84 106.678C84 101.464 88.4771 97.2378 94 97.2378H143C148.523 97.2378 153 101.464 153 106.678V218.549C153 223.401 142.195 273.996 136.245 280.998C135.585 281.774 134.506 281.956 133.535 282.262L130.465 283.228C129.494 283.533 128.487 283.592 127.84 282.805C119.385 272.521 84 175.81 84 170.874V106.678Z" fill="#3CBAB1"/>
<path d="M252 50.035C252 44.8211 256.477 40.5944 262 40.5944H311C316.523 40.5944 321 44.8211 321 50.035V281.801C321 287.015 299.523 157.185 294 157.185L291 135C285.477 135 252 344.13 252 338.916V50.035Z" fill="#3CBAB1"/>
<path d="M0 161.434C0 156.22 4.47715 151.993 10 151.993H59C64.5229 151.993 69 156.22 69 161.434V188.811C69 192.221 67.0847 199.45 64.2142 204.043C62.0082 207.573 58.0283 210.743 56.5604 214.638L42.9396 250.782C41.4717 254.677 37.7557 257.398 33.6138 257.811C21.6991 258.999 0 261.362 0 257.255V161.434Z" fill="#3CBAB1"/>
<path d="M336 121.783C336 116.569 340.477 112.343 346 112.343H395C400.523 112.343 405 116.569 405 121.783V245.927C405 251.14 392.523 245.927 387 245.927H357C351.477 245.927 336 251.14 336 245.927V121.783Z" fill="#3CBAB1"/>
<path d="M168 9.44057C168 4.22669 172.477 0 178 0H227C232.523 0 237 4.22668 237 9.44056V362.517C237 367.219 219.942 141.97 212.541 97.6638C211.775 93.0823 209.751 93.3559 208.693 97.8787L183.807 204.219C182.749 208.742 178.956 210.465 176.708 206.4C172.26 198.359 168 184.011 168 180.315V9.44057Z" fill="#3CBAB1"/>
<rect y="386.119" width="405" height="18.8811" rx="9.44056" fill="#3CBAB1"/>
<path d="M206.577 83.0327C204.191 84.9523 203.396 88.4426 191.565 147.864C184.805 182.417 182.467 204.225 182.169 205.447C181.671 207.105 180.677 205.098 178.092 196.721C176.005 190.264 168.847 168.281 167.554 167.06C164.771 164.355 162.613 173.405 160.127 176.197C158.934 177.418 155.326 202.131 147.969 225.777C141.11 247.679 131.816 272.901 131.717 272.726C131.518 272.639 122.471 246.812 111.535 215.399C96.7224 173.081 86.4918 152.183 85.0006 151.049C82.714 149.391 83.6849 152.572 81.0007 153.881C78.9129 154.841 77.4359 159.643 51.4883 215.487L32.2017 256.933H0C0 261.031 1.14441e-05 265.294 1.14441e-05 270C48.6144 270 39.8567 270.283 41.5467 269.236C42.9386 268.364 50.2954 253.443 63.3188 225.608C74.1552 202.311 83.3014 183.202 83.5997 183.202C83.8979 183.202 93.541 209.815 104.874 242.274C116.208 274.821 126.05 301.87 126.746 302.481C127.442 303.091 129.331 303.789 131.021 304.138C133.407 304.487 134.699 304.138 136.688 302.568C138.974 300.823 144.49 288.253 155.028 254.048C161.689 232.583 167.356 215.22 167.554 215.394C167.753 215.569 169.94 221.938 172.326 229.529C175.11 238.43 177.297 243.752 178.391 244.45C181.87 246.632 188.829 245.497 190.122 242.443C190.42 241.658 195.391 217.401 201.157 188.519C206.923 159.725 208.267 142.279 208.664 140.883C209.062 139.313 214.63 184.773 222.484 253.268C231.431 331.624 236.004 368.708 236.899 369.58C240.378 373.245 247.636 372.547 249.624 368.359C250.221 367.05 259.168 323.422 269.607 271.418C280.045 219.326 288.694 176.571 288.993 176.396C289.291 176.134 289.49 176.92 289.589 178.054C289.589 179.188 302.416 248.634 305.001 267.656C310.27 306.049 310.17 305.874 317.129 305.874C319.416 305.874 321.404 305.263 322.398 304.303C323.293 303.431 327.27 292.175 331.346 279.261L338.603 255.702L360.872 255.44C405 255.367 403 255.367 405 255.367C405 252.535 405 247.343 405 242.15C403 242.15 414.5 242.15 356.498 242.178C324.884 242.192 326.872 241.392 323.194 254.306C321.404 260.327 320.509 262.072 320.012 260.85C319.615 259.978 306.192 188.612 303.408 167.06C300.525 144.81 297.741 126.573 296.946 125.003C294.56 120.204 286.806 119.942 284.221 124.566C283.425 125.875 274.379 169.241 264.039 221.071C253.799 272.814 245.15 314.784 245.051 314.435C244.952 313.998 238.987 262.43 231.829 199.955C224.671 137.393 218.408 85.4759 217.911 84.5161C215.624 80.7641 210.355 80.066 206.577 83.0327Z" fill="#15191E"/>
</svg>
